<?xml version="1.0" encoding="UTF-8"?>
<!DOCTYPE svg PUBLIC "-//W3C//DTD SVG 1.1//EN" "http://www.w3.org/Graphics/SVG/1.1/DTD/svg11.dtd">
<svg xmlns="http://www.w3.org/2000/svg" version="1.1" width="996px" height="623px" style="shape-rendering:geometricPrecision; text-rendering:geometricPrecision; image-rendering:optimizeQuality; fill-rule:evenodd; clip-rule:evenodd" xmlns:xlink="http://www.w3.org/1999/xlink">
<g><path style="opacity:1" fill="#fefefe" d="M -0.5,-0.5 C 331.5,-0.5 663.5,-0.5 995.5,-0.5C 995.5,206.167 995.5,412.833 995.5,619.5C 663.5,619.5 331.5,619.5 -0.5,619.5C -0.5,412.833 -0.5,206.167 -0.5,-0.5 Z"/></g>
<g><path style="opacity:1" fill="#cde4f4" d="M 682.5,39.5 C 655.013,37.7444 627.679,39.0777 600.5,43.5C 601.678,42.0014 603.345,41.0014 605.5,40.5C 619.942,38.686 634.442,37.686 649,37.5C 660.378,37.2872 671.545,37.9539 682.5,39.5 Z"/></g>
<g><path style="opacity:1" fill="#133462" d="M 682.5,39.5 C 738.759,44.0842 790.092,62.2509 836.5,94C 904.259,145.414 930.426,213.247 915,297.5C 913.317,303.236 911.817,308.903 910.5,314.5C 910.44,313.957 910.107,313.624 909.5,313.5C 908.534,315.396 908.201,317.396 908.5,319.5C 907.448,319.351 906.448,319.517 905.5,320C 906.127,321.738 906.46,323.571 906.5,325.5C 904.909,328.593 904.242,332.593 904.5,337.5C 899.821,337.334 895.155,337.501 890.5,338C 890.833,338.333 891.167,338.667 891.5,339C 889.866,339.494 888.199,339.66 886.5,339.5C 886.5,397.167 886.5,454.833 886.5,512.5C 837.502,511.887 788.502,511.554 739.5,511.5C 745.276,486.507 750.942,461.507 756.5,436.5C 778.535,435.178 800.535,435.178 822.5,436.5C 823.5,395.505 823.833,354.505 823.5,313.5C 824.586,313.38 825.253,312.713 825.5,311.5C 824.936,309.181 824.436,306.847 824,304.5C 821.527,303.88 819.027,303.214 816.5,302.5C 757.472,302.052 698.472,301.052 639.5,299.5C 639.5,297.5 639.5,295.5 639.5,293.5C 700.263,291.87 760.929,290.87 821.5,290.5C 822.268,289.737 822.768,288.737 823,287.5C 823.843,269.59 823.01,251.757 820.5,234C 820.536,231.906 820.869,229.906 821.5,228C 819.857,214.497 818.024,200.997 816,187.5C 815.817,179.588 815.317,171.754 814.5,164C 753.168,163.5 691.834,163.333 630.5,163.5C 631.667,196.174 632.834,228.841 634,261.5C 631.141,239.738 627.807,218.071 624,196.5C 623.98,185.727 622.98,175.06 621,164.5C 619.989,163.663 618.822,163.33 617.5,163.5C 558.157,162.837 499.157,163.504 440.5,165.5C 440.167,165.5 439.833,165.5 439.5,165.5C 438.506,175.319 438.173,185.319 438.5,195.5C 438.378,212.179 438.711,228.846 439.5,245.5C 436.664,244.224 433.664,243.558 430.5,243.5C 430.083,234.912 429.916,226.246 430,217.5C 429.308,214.064 428.308,210.73 427,207.5C 425.649,192.173 424.482,176.84 423.5,161.5C 362.158,160.837 301.158,161.504 240.5,163.5C 241,184.845 241.834,206.178 243,227.5C 243.253,232.184 244.587,236.518 247,240.5C 247.39,251.022 248.223,261.355 249.5,271.5C 249.059,278.147 249.059,284.481 249.5,290.5C 275.5,291.167 301.5,291.833 327.5,292.5C 330.294,296.412 331.627,300.745 331.5,305.5C 303.5,305.5 275.5,305.5 247.5,305.5C 247.5,336.167 247.5,366.833 247.5,397.5C 243.833,397.5 240.167,397.5 236.5,397.5C 236.5,377.167 236.5,356.833 236.5,336.5C 236.5,335.5 236.5,334.5 236.5,333.5C 196.319,333.635 156.319,334.635 116.5,336.5C 116.5,393.833 116.5,451.167 116.5,508.5C 141.167,508.5 165.833,508.5 190.5,508.5C 190.5,528.833 190.5,549.167 190.5,569.5C 189.167,569.5 188.5,568.833 188.5,567.5C 188.5,548.167 188.5,528.833 188.5,509.5C 153.681,509.092 119.681,509.758 86.5,511.5C 60.298,459.016 47.798,403.349 49,344.5C 53.3708,291.447 72.3708,244.447 106,203.5C 137.775,170.862 176.275,151.362 221.5,145C 232.548,144.052 243.548,142.718 254.5,141C 294.833,140.667 335.167,140.333 375.5,140C 399.879,139.993 423.545,135.993 446.5,128C 453.292,125.105 459.625,121.438 465.5,117C 475.167,108 484.833,99 494.5,90C 526.028,66.0995 561.361,50.5995 600.5,43.5C 627.679,39.0777 655.013,37.7444 682.5,39.5 Z"/></g>
<g><path style="opacity:1" fill="#0a2242" d="M 603.5,113.5 C 665.167,113.5 726.833,113.5 788.5,113.5C 788.5,127.833 788.5,142.167 788.5,156.5C 726.833,156.5 665.167,156.5 603.5,156.5C 603.5,142.167 603.5,127.833 603.5,113.5 Z"/></g>
<g><path style="opacity:1" fill="#924320" d="M 634.5,124.5 C 633.432,125.434 632.099,125.768 630.5,125.5C 630.5,124.167 630.5,122.833 630.5,121.5C 631.833,121.5 633.167,121.5 634.5,121.5C 634.5,122.5 634.5,123.5 634.5,124.5 Z"/></g>
<g><path style="opacity:1" fill="#c1d7f4" d="M 643.5,123.5 C 644.833,123.5 646.167,123.5 647.5,123.5C 647.5,124.833 647.5,126.167 647.5,127.5C 646.167,127.5 644.833,127.5 643.5,127.5C 643.5,126.167 643.5,124.833 643.5,123.5 Z"/></g>
<g><path style="opacity:1" fill="#cadfef" d="M 618.5,123.5 C 619.833,123.5 621.167,123.5 622.5,123.5C 622.5,124.833 622.5,126.167 622.5,127.5C 618.56,128.234 617.227,126.901 618.5,123.5 Z"/></g>
<g><path style="opacity:1" fill="#91a0ba" d="M 634.5,124.5 C 635.746,126.023 635.246,127.023 633,127.5C 631.699,127.361 630.866,126.695 630.5,125.5C 632.099,125.768 633.432,125.434 634.5,124.5 Z"/></g>
<g><path style="opacity:1" fill="#c3d5e6" d="M 750.5,128.5 C 751.833,128.5 753.167,128.5 754.5,128.5C 754.465,134.024 752.799,134.691 749.5,130.5C 749.863,129.817 750.196,129.15 750.5,128.5 Z"/></g>
<g><path style="opacity:1" fill="#d99c76" d="M 763.5,128.5 C 764.5,128.5 765.5,128.5 766.5,128.5C 766.5,129.5 766.5,130.5 766.5,131.5C 763.433,131.879 762.433,130.879 763.5,128.5 Z"/></g>
<g><path style="opacity:1" fill="#aec4e3" d="M 775.5,128.5 C 776.873,128.343 778.207,128.51 779.5,129C 780.474,131.702 779.474,133.035 776.5,133C 775.62,131.644 775.286,130.144 775.5,128.5 Z"/></g>
<g><path style="opacity:1" fill="#c2d1e1" d="M 694.5,139.5 C 698.161,139.35 699.161,140.85 697.5,144C 693.707,144.487 692.707,142.987 694.5,139.5 Z"/></g>
<g><path style="opacity:1" fill="#a9bdd9" d="M 720.5,139.5 C 724.161,139.35 725.161,140.85 723.5,144C 719.707,144.487 718.707,142.987 720.5,139.5 Z"/></g>
<g><path style="opacity:1" fill="#cad9e8" d="M 750.5,139.5 C 754.161,139.35 755.161,140.85 753.5,144C 749.707,144.487 748.707,142.987 750.5,139.5 Z"/></g>
<g><path style="opacity:1" fill="#a9bedb" d="M 776.5,139.5 C 780.161,139.35 781.161,140.85 779.5,144C 775.707,144.487 774.707,142.987 776.5,139.5 Z"/></g>
<g><path style="opacity:1" fill="#a3989e" d="M 707.5,139.5 C 711.161,139.35 712.161,140.85 710.5,144C 706.668,144.514 705.668,143.014 707.5,139.5 Z"/></g>
<g><path style="opacity:1" fill="#a696a0" d="M 763.5,139.5 C 767.161,139.35 768.161,140.85 766.5,144C 762.707,144.487 761.707,142.987 763.5,139.5 Z"/></g>
<g><path style="opacity:1" fill="#11203d" d="M 240.5,163.5 C 301.167,163.5 361.833,163.5 422.5,163.5C 422.81,166.713 422.477,169.713 421.5,172.5C 421.5,170.5 421.5,168.5 421.5,166.5C 362.002,165.501 302.336,165.168 242.5,165.5C 242.205,167.735 242.539,169.735 243.5,171.5C 244.066,184.35 245.066,197.016 246.5,209.5C 246.181,214.363 246.514,219.03 247.5,223.5C 247.181,228.363 247.514,233.03 248.5,237.5C 248.759,248.836 249.093,260.169 249.5,271.5C 248.223,261.355 247.39,251.022 247,240.5C 244.587,236.518 243.253,232.184 243,227.5C 241.834,206.178 241,184.845 240.5,163.5 Z"/></g>
<g><path style="opacity:1" fill="#1d2c3d" d="M 617.5,163.5 C 617.167,164.167 616.833,164.833 616.5,165.5C 557.833,165.5 499.167,165.5 440.5,165.5C 499.157,163.504 558.157,162.837 617.5,163.5 Z"/></g>
<g><path style="opacity:1" fill="#44506e" d="M 421.5,166.5 C 362.167,166.5 302.833,166.5 243.5,166.5C 243.5,168.167 243.5,169.833 243.5,171.5C 242.539,169.735 242.205,167.735 242.5,165.5C 302.336,165.168 362.002,165.501 421.5,166.5 Z"/></g>
<g><path style="opacity:1" fill="#00011c" d="M 439.5,165.5 C 439.833,165.5 440.167,165.5 440.5,165.5C 499.167,165.5 557.833,165.5 616.5,165.5C 617.791,165.263 618.791,165.596 619.5,166.5C 559.833,166.5 500.167,166.5 440.5,166.5C 440.5,169.5 440.5,172.5 440.5,175.5C 439.521,172.375 439.187,169.042 439.5,165.5 Z"/></g>
<g><path style="opacity:1" fill="#cfdffd" d="M 421.5,166.5 C 421.5,168.5 421.5,170.5 421.5,172.5C 424.687,210.785 427.354,249.119 429.5,287.5C 425.893,288.824 421.893,289.491 417.5,289.5C 413.319,289.499 409.319,289.166 405.5,288.5C 411.955,281.558 411.955,274.725 405.5,268C 390.913,261.106 375.58,258.773 359.5,261C 347.133,262.556 336.633,267.722 328,276.5C 327.502,279.482 327.335,282.482 327.5,285.5C 327.5,286.833 327.5,288.167 327.5,289.5C 302.167,289.5 276.833,289.5 251.5,289.5C 251.5,288.167 251.5,286.833 251.5,285.5C 251.5,283.833 251.5,282.167 251.5,280.5C 256.68,279.191 260.013,281.024 261.5,286C 264.5,286.667 267.5,286.667 270.5,286C 271.872,284.758 272.872,283.258 273.5,281.5C 282.482,280.335 291.482,280.168 300.5,281C 301.5,282.667 302.5,284.333 303.5,286C 306.5,286.667 309.5,286.667 312.5,286C 314.678,282.16 317.512,278.993 321,276.5C 321.816,271.316 321.65,266.316 320.5,261.5C 317.833,261.5 315.167,261.5 312.5,261.5C 312.664,258.813 312.497,256.146 312,253.5C 306.142,250.301 303.809,245.301 305,238.5C 303.648,236.568 301.815,235.234 299.5,234.5C 295.809,228.612 292.976,222.278 291,215.5C 288.695,213.978 287.195,211.978 286.5,209.5C 279.459,208.279 272.292,207.612 265,207.5C 258.462,207.504 252.295,208.17 246.5,209.5C 245.066,197.016 244.066,184.35 243.5,171.5C 243.5,169.833 243.5,168.167 243.5,166.5C 302.833,166.5 362.167,166.5 421.5,166.5 Z"/></g>
<g><path style="opacity:1" fill="#8998b3" d="M 619.5,166.5 C 619.5,167.833 619.5,169.167 619.5,170.5C 618.596,169.791 618.263,168.791 618.5,167.5C 559.5,167.5 500.5,167.5 441.5,167.5C 441.5,170.167 441.5,172.833 441.5,175.5C 441.167,175.5 440.833,175.5 440.5,175.5C 440.5,172.5 440.5,169.5 440.5,166.5C 500.167,166.5 559.833,166.5 619.5,166.5 Z"/></g>
<g><path style="opacity:1" fill="#d0dffd" d="M 619.5,170.5 C 621.565,195.473 623.232,220.473 624.5,245.5C 624.247,251.873 624.581,258.206 625.5,264.5C 621.804,268.858 617.47,272.525 612.5,275.5C 607.905,270.968 604.905,265.634 603.5,259.5C 602.861,254.736 600.528,250.903 596.5,248C 591.367,246.937 586.367,245.937 581.5,245C 576.565,255.705 570.732,265.872 564,275.5C 561.49,280.195 560.323,285.195 560.5,290.5C 555.5,290.5 550.5,290.5 545.5,290.5C 544.833,286.167 544.167,281.833 543.5,277.5C 543.5,276.833 543.5,276.167 543.5,275.5C 543.336,272.813 543.503,270.146 544,267.5C 545.682,271.893 547.516,276.227 549.5,280.5C 550.325,281.386 551.325,281.719 552.5,281.5C 552.869,266.615 548.202,253.615 538.5,242.5C 536.5,237.833 534.5,233.167 532.5,228.5C 529.666,227.282 527.666,225.282 526.5,222.5C 531.173,220.645 533.84,217.145 534.5,212C 533.685,210.02 532.352,208.52 530.5,207.5C 530.389,206.883 530.056,206.383 529.5,206C 527.527,205.505 525.527,205.338 523.5,205.5C 523.814,197.913 523.481,190.413 522.5,183C 505.833,182.333 489.167,182.333 472.5,183C 473,183.5 473.5,184 474,184.5C 475.929,208.833 477.762,233.166 479.5,257.5C 479.5,258.833 479.5,260.167 479.5,261.5C 479.418,268.851 479.751,276.184 480.5,283.5C 480.167,285.5 479.833,287.5 479.5,289.5C 476.543,253.855 473.876,218.188 471.5,182.5C 462.183,182.579 453.016,182.579 444,182.5C 443.667,183.167 443.333,183.833 443,184.5C 442.79,182.942 442.29,181.609 441.5,180.5C 441.5,178.833 441.5,177.167 441.5,175.5C 441.5,172.833 441.5,170.167 441.5,167.5C 500.5,167.5 559.5,167.5 618.5,167.5C 618.263,168.791 618.596,169.791 619.5,170.5 Z"/></g>
<g><path style="opacity:1" fill="#bbd3fb" d="M 441.5,180.5 C 442.29,181.609 442.79,182.942 443,184.5C 443.333,183.833 443.667,183.167 444,182.5C 453.016,182.579 462.183,182.579 471.5,182.5C 473.876,218.188 476.543,253.855 479.5,289.5C 479.833,287.5 480.167,285.5 480.5,283.5C 479.751,276.184 479.418,268.851 479.5,261.5C 484.875,261.828 490.208,261.495 495.5,260.5C 500.763,258.886 506.096,257.553 511.5,256.5C 512.375,254.227 514.042,253.227 516.5,253.5C 516.5,260.833 516.5,268.167 516.5,275.5C 525.524,278.105 534.524,278.105 543.5,275.5C 543.5,276.167 543.5,276.833 543.5,277.5C 535.648,280.931 527.648,281.265 519.5,278.5C 518.509,282.445 518.176,286.445 518.5,290.5C 495.5,290.5 472.5,290.5 449.5,290.5C 448.533,281.19 447.866,271.857 447.5,262.5C 445.143,235.193 443.143,207.86 441.5,180.5 Z"/></g>
<g><path style="opacity:1" fill="#bed5fd" d="M 530.5,207.5 C 526.566,206.64 522.566,206.307 518.5,206.5C 518.674,208.861 519.007,211.194 519.5,213.5C 518.778,213.082 518.278,212.416 518,211.5C 517.502,214.817 517.335,218.15 517.5,221.5C 518.5,221.5 519.5,221.5 520.5,221.5C 520.657,222.873 520.49,224.207 520,225.5C 517.994,229.513 515.494,233.18 512.5,236.5C 511.824,241.859 509.157,245.859 504.5,248.5C 498.715,250.946 493.048,253.613 487.5,256.5C 484.914,257.48 482.247,257.813 479.5,257.5C 477.762,233.166 475.929,208.833 474,184.5C 473.5,184 473,183.5 472.5,183C 489.167,182.333 505.833,182.333 522.5,183C 523.481,190.413 523.814,197.913 523.5,205.5C 525.527,205.338 527.527,205.505 529.5,206C 530.056,206.383 530.389,206.883 530.5,207.5 Z"/></g>
<g><path style="opacity:1" fill="#7589ac" d="M 530.5,207.5 C 532.352,208.52 533.685,210.02 534.5,212C 533.84,217.145 531.173,220.645 526.5,222.5C 525.504,222.586 524.671,222.252 524,221.5C 524.241,217.733 522.741,215.066 519.5,213.5C 519.007,211.194 518.674,208.861 518.5,206.5C 522.566,206.307 526.566,206.64 530.5,207.5 Z"/></g>
<g><path style="opacity:1" fill="#0f274c" d="M 617.5,163.5 C 618.822,163.33 619.989,163.663 621,164.5C 622.98,175.06 623.98,185.727 624,196.5C 627.807,218.071 631.141,239.738 634,261.5C 632.834,228.841 631.667,196.174 630.5,163.5C 691.834,163.333 753.168,163.5 814.5,164C 815.317,171.754 815.817,179.588 816,187.5C 818.024,200.997 819.857,214.497 821.5,228C 820.869,229.906 820.536,231.906 820.5,234C 823.01,251.757 823.843,269.59 823,287.5C 822.768,288.737 822.268,289.737 821.5,290.5C 760.929,290.87 700.263,291.87 639.5,293.5C 575.119,292.839 510.952,293.506 447,295.5C 446.345,286.838 445.845,278.172 445.5,269.5C 446.167,267.167 446.833,264.833 447.5,262.5C 447.866,271.857 448.533,281.19 449.5,290.5C 472.5,290.5 495.5,290.5 518.5,290.5C 527.5,290.5 536.5,290.5 545.5,290.5C 550.5,290.5 555.5,290.5 560.5,290.5C 563.5,290.5 566.5,290.5 569.5,290.5C 571.5,290.5 573.5,290.5 575.5,290.5C 585.833,290.5 596.167,290.5 606.5,290.5C 613.5,290.5 620.5,290.5 627.5,290.5C 627.5,287.833 627.5,285.167 627.5,282.5C 626.768,270 625.768,257.667 624.5,245.5C 623.232,220.473 621.565,195.473 619.5,170.5C 619.5,169.167 619.5,167.833 619.5,166.5C 618.791,165.596 617.791,165.263 616.5,165.5C 616.833,164.833 617.167,164.167 617.5,163.5 Z"/></g>
<g><path style="opacity:1" fill="#cfdefc" d="M 821.5,290.5 C 800.167,290.5 778.833,290.5 757.5,290.5C 757.5,290.167 757.5,289.833 757.5,289.5C 760.711,289.988 763.544,289.321 766,287.5C 770.414,288.801 775.081,289.468 780,289.5C 784.5,289.167 789,288.833 793.5,288.5C 794.47,280.222 794.803,271.889 794.5,263.5C 795.048,270.442 796.048,277.442 797.5,284.5C 802.792,285.495 808.125,285.828 813.5,285.5C 812.938,275.483 812.105,265.483 811,255.5C 807.063,231.931 803.73,208.264 801,184.5C 789.247,183.512 777.414,183.179 765.5,183.5C 766.477,194.184 767.311,204.85 768,215.5C 766.081,204.901 764.581,194.234 763.5,183.5C 751.167,183.5 738.833,183.5 726.5,183.5C 726.644,190.824 727.644,197.991 729.5,205C 729.129,206.603 728.795,208.103 728.5,209.5C 725.482,209.335 722.482,209.502 719.5,210C 717.667,210.5 716.5,211.667 716,213.5C 715.416,217.928 714.749,222.261 714,226.5C 716.419,228.585 719.253,229.585 722.5,229.5C 722.5,227.5 722.5,225.5 722.5,223.5C 723.461,225.265 723.795,227.265 723.5,229.5C 725.167,229.5 726.833,229.5 728.5,229.5C 729.485,224.889 730.152,220.222 730.5,215.5C 733.152,219.76 733.152,224.093 730.5,228.5C 732.045,229.452 733.712,229.785 735.5,229.5C 736.674,230.514 737.34,231.847 737.5,233.5C 732.629,232.915 727.796,232.248 723,231.5C 724.294,240.022 724.794,248.689 724.5,257.5C 722.833,257.5 721.167,257.5 719.5,257.5C 719.5,258.833 719.5,260.167 719.5,261.5C 718.5,261.5 717.5,261.5 716.5,261.5C 716.5,265.5 718.5,267.5 722.5,267.5C 722.38,268.586 721.713,269.253 720.5,269.5C 718.432,269.033 716.432,268.366 714.5,267.5C 713.482,268.193 712.482,268.859 711.5,269.5C 714.429,262.117 715.929,254.45 716,246.5C 714.981,245.313 713.814,244.313 712.5,243.5C 710.459,253.055 709.126,262.722 708.5,272.5C 708.833,272.833 709.167,273.167 709.5,273.5C 710.182,272.757 710.849,272.091 711.5,271.5C 711.714,273.144 711.38,274.644 710.5,276C 712.723,276.566 714.723,277.4 716.5,278.5C 716.323,282.234 716.656,285.901 717.5,289.5C 708.833,289.5 700.167,289.5 691.5,289.5C 689.722,283.475 687.389,277.808 684.5,272.5C 683.728,268.548 683.395,264.548 683.5,260.5C 686.589,262.194 689.089,261.528 691,258.5C 692.199,255.274 692.699,251.941 692.5,248.5C 694.903,248.607 696.736,247.607 698,245.5C 698.497,242.854 698.664,240.187 698.5,237.5C 698.461,236.417 698.127,235.417 697.5,234.5C 690.5,233.167 683.5,233.167 676.5,234.5C 666.243,237.01 662.743,243.343 666,253.5C 666.485,257.812 668.485,261.145 672,263.5C 673.111,268.013 672.277,272.013 669.5,275.5C 668.325,275.281 667.325,275.614 666.5,276.5C 664.698,280.714 663.364,285.048 662.5,289.5C 656.167,289.5 649.833,289.5 643.5,289.5C 640.465,248.652 637.465,207.652 634.5,166.5C 694.167,166.5 753.833,166.5 813.5,166.5C 816.167,207.833 818.833,249.167 821.5,290.5 Z"/></g>
<g><path style="opacity:1" fill="#798aa9" d="M 728.5,209.5 C 729.688,210.364 730.855,211.364 732,212.5C 733.442,216.511 735.442,220.178 738,223.5C 738.966,226.34 738.133,228.34 735.5,229.5C 733.712,229.785 732.045,229.452 730.5,228.5C 733.152,224.093 733.152,219.76 730.5,215.5C 730.103,214.475 729.437,214.308 728.5,215C 726.204,217.768 724.204,220.601 722.5,223.5C 722.5,225.5 722.5,227.5 722.5,229.5C 719.253,229.585 716.419,228.585 714,226.5C 714.749,222.261 715.416,217.928 716,213.5C 716.5,211.667 717.667,210.5 719.5,210C 722.482,209.502 725.482,209.335 728.5,209.5 Z"/></g>
<g><path style="opacity:1" fill="#bfd5fd" d="M 794.5,263.5 C 793.762,258.762 791.096,256.095 786.5,255.5C 787.833,255.5 789.167,255.5 790.5,255.5C 790.666,247.493 790.5,239.493 790,231.5C 789.072,229.693 787.906,228.026 786.5,226.5C 781.5,225.167 776.5,225.167 771.5,226.5C 769.815,228.017 768.315,229.684 767,231.5C 765.454,241.139 762.954,250.472 759.5,259.5C 759.757,261.692 760.757,263.359 762.5,264.5C 760.989,269.551 759.655,274.551 758.5,279.5C 757.411,277.883 755.744,277.05 753.5,277C 750.058,269.68 749.058,269.847 750.5,277.5C 748.833,277.5 747.167,277.5 745.5,277.5C 745.5,275.5 745.5,273.5 745.5,271.5C 747.635,271.853 748.968,271.02 749.5,269C 747.956,267.414 746.789,265.58 746,263.5C 744.566,256.758 743.066,250.092 741.5,243.5C 741.725,239.503 740.392,236.169 737.5,233.5C 737.34,231.847 736.674,230.514 735.5,229.5C 738.133,228.34 738.966,226.34 738,223.5C 735.442,220.178 733.442,216.511 732,212.5C 730.855,211.364 729.688,210.364 728.5,209.5C 728.795,208.103 729.129,206.603 729.5,205C 727.644,197.991 726.644,190.824 726.5,183.5C 738.833,183.5 751.167,183.5 763.5,183.5C 764.581,194.234 766.081,204.901 768,215.5C 767.311,204.85 766.477,194.184 765.5,183.5C 777.414,183.179 789.247,183.512 801,184.5C 803.73,208.264 807.063,231.931 811,255.5C 812.105,265.483 812.938,275.483 813.5,285.5C 808.125,285.828 802.792,285.495 797.5,284.5C 796.048,277.442 795.048,270.442 794.5,263.5 Z"/></g>
<g><path style="opacity:1" fill="#7d95c3" d="M 597.5,227.5 C 592.425,224.847 587.759,225.514 583.5,229.5C 582.045,225.947 582.378,222.447 584.5,219C 588.195,218.682 591.862,218.182 595.5,217.5C 600.253,218.643 601.753,221.643 600,226.5C 599.329,227.252 598.496,227.586 597.5,227.5 Z"/></g>
<g><path style="opacity:1" fill="#eacabd" d="M 730.5,215.5 C 730.152,220.222 729.485,224.889 728.5,229.5C 726.833,229.5 725.167,229.5 723.5,229.5C 723.795,227.265 723.461,225.265 722.5,223.5C 724.204,220.601 726.204,217.768 728.5,215C 729.437,214.308 730.103,214.475 730.5,215.5 Z"/></g>
<g><path style="opacity:1" fill="#e1bea6" d="M 519.5,213.5 C 522.741,215.066 524.241,217.733 524,221.5C 524.671,222.252 525.504,222.586 526.5,222.5C 527.666,225.282 529.666,227.282 532.5,228.5C 534.5,233.167 536.5,237.833 538.5,242.5C 548.202,253.615 552.869,266.615 552.5,281.5C 551.325,281.719 550.325,281.386 549.5,280.5C 547.516,276.227 545.682,271.893 544,267.5C 543.503,270.146 543.336,272.813 543.5,275.5C 534.524,278.105 525.524,278.105 516.5,275.5C 516.5,268.167 516.5,260.833 516.5,253.5C 514.042,253.227 512.375,254.227 511.5,256.5C 506.096,257.553 500.763,258.886 495.5,260.5C 490.208,261.495 484.875,261.828 479.5,261.5C 479.5,260.167 479.5,258.833 479.5,257.5C 482.247,257.813 484.914,257.48 487.5,256.5C 493.048,253.613 498.715,250.946 504.5,248.5C 509.157,245.859 511.824,241.859 512.5,236.5C 515.494,233.18 517.994,229.513 520,225.5C 520.49,224.207 520.657,222.873 520.5,221.5C 519.5,221.5 518.5,221.5 517.5,221.5C 517.335,218.15 517.502,214.817 518,211.5C 518.278,212.416 518.778,213.082 519.5,213.5 Z"/></g>
<g><path style="opacity:1" fill="#e3c6bb" d="M 597.5,227.5 C 596.949,230.807 596.616,234.14 596.5,237.5C 595.167,237.5 593.833,237.5 592.5,237.5C 592.5,239.5 592.5,241.5 592.5,243.5C 589.212,243.927 586.212,243.26 583.5,241.5C 584.454,237.643 584.454,233.643 583.5,229.5C 587.759,225.514 592.425,224.847 597.5,227.5 Z"/></g>
<g><path style="opacity:1" fill="#bbcbe3" d="M 247.5,223.5 C 248.833,223.5 250.167,223.5 251.5,223.5C 251.118,227.54 252.118,231.207 254.5,234.5C 252.025,234.964 250.025,235.964 248.5,237.5C 247.514,233.03 247.181,228.363 247.5,223.5 Z"/></g>
<g><path style="opacity:1" fill="#e7edfb" d="M 737.5,233.5 C 740.392,236.169 741.725,239.503 741.5,243.5C 740.778,243.082 740.278,242.416 740,241.5C 739.785,246.915 739.285,252.248 738.5,257.5C 733.733,258.797 729.066,258.797 724.5,257.5C 724.794,248.689 724.294,240.022 723,231.5C 727.796,232.248 732.629,232.915 737.5,233.5 Z"/></g>
<g><path style="opacity:1" fill="#c69fa4" d="M 786.5,255.5 C 786.167,255.5 785.833,255.5 785.5,255.5C 784.853,254.726 784.52,253.726 784.5,252.5C 789.359,246.368 789.692,240.035 785.5,233.5C 783.784,237.383 780.951,240.05 777,241.5C 777.203,246.621 776.037,251.288 773.5,255.5C 766.49,254.516 762.823,257.516 762.5,264.5C 760.757,263.359 759.757,261.692 759.5,259.5C 762.954,250.472 765.454,241.139 767,231.5C 768.315,229.684 769.815,228.017 771.5,226.5C 776.5,225.167 781.5,225.167 786.5,226.5C 787.906,228.026 789.072,229.693 790,231.5C 790.5,239.493 790.666,247.493 790.5,255.5C 789.167,255.5 787.833,255.5 786.5,255.5 Z"/></g>
<g><path style="opacity:1" fill="#eacabe" d="M 785.5,255.5 C 786.371,258.112 787.037,260.779 787.5,263.5C 783.445,263.824 779.445,263.491 775.5,262.5C 774.054,260.382 773.387,258.049 773.5,255.5C 776.037,251.288 777.203,246.621 777,241.5C 780.951,240.05 783.784,237.383 785.5,233.5C 789.692,240.035 789.359,246.368 784.5,252.5C 784.52,253.726 784.853,254.726 785.5,255.5 Z"/></g>
<g><path style="opacity:1" fill="#0e2442" d="M 439.5,165.5 C 439.187,169.042 439.521,172.375 440.5,175.5C 440.833,175.5 441.167,175.5 441.5,175.5C 441.5,177.167 441.5,178.833 441.5,180.5C 443.143,207.86 445.143,235.193 447.5,262.5C 446.833,264.833 446.167,267.167 445.5,269.5C 443.83,244.771 441.497,220.104 438.5,195.5C 438.173,185.319 438.506,175.319 439.5,165.5 Z"/></g>
<g><path style="opacity:1" fill="#7a94c7" d="M 603.5,259.5 C 602.912,261.205 602.579,262.872 602.5,264.5C 604.318,269.655 605.651,274.988 606.5,280.5C 606.167,281.167 605.833,281.833 605.5,282.5C 602.481,283.974 599.315,284.974 596,285.5C 592.768,284.718 589.602,284.718 586.5,285.5C 585.847,280.463 585.513,275.463 585.5,270.5C 581.857,268.605 579.857,269.605 579.5,273.5C 578.325,273.281 577.325,273.614 576.5,274.5C 575.191,276.976 573.358,278.976 571,280.5C 570.506,282.134 570.34,283.801 570.5,285.5C 570.371,287.216 570.038,288.883 569.5,290.5C 566.5,290.5 563.5,290.5 560.5,290.5C 560.323,285.195 561.49,280.195 564,275.5C 570.732,265.872 576.565,255.705 581.5,245C 586.367,245.937 591.367,246.937 596.5,248C 600.528,250.903 602.861,254.736 603.5,259.5 Z"/></g>
<g><path style="opacity:1" fill="#aa858b" d="M 698.5,237.5 C 698.664,240.187 698.497,242.854 698,245.5C 696.736,247.607 694.903,248.607 692.5,248.5C 692.699,251.941 692.199,255.274 691,258.5C 689.089,261.528 686.589,262.194 683.5,260.5C 684.32,256.855 682.987,254.522 679.5,253.5C 678.304,253.846 678.304,254.346 679.5,255C 678.668,255.688 678.002,255.521 677.5,254.5C 675.5,250.833 673.5,247.167 671.5,243.5C 669.733,245.916 668.233,248.583 667,251.5C 666.333,248.5 666.333,245.5 667,242.5C 670.932,239.067 675.432,236.734 680.5,235.5C 682.481,235.437 684.148,236.104 685.5,237.5C 687.226,235.97 689.226,234.97 691.5,234.5C 693.996,235.251 696.33,236.251 698.5,237.5 Z"/></g>
<g><path style="opacity:1" fill="#cca8b1" d="M 320.5,261.5 C 320.608,266.87 320.275,272.203 319.5,277.5C 317.833,277.5 316.167,277.5 314.5,277.5C 314.5,278.5 314.5,279.5 314.5,280.5C 310.167,280.5 305.833,280.5 301.5,280.5C 301.5,279.5 301.5,278.5 301.5,277.5C 291.5,277.5 281.5,277.5 271.5,277.5C 271.08,267.865 266.913,265.532 259,270.5C 257.798,272.677 257.298,275.011 257.5,277.5C 255.167,277.5 252.833,277.5 250.5,277.5C 250.795,275.265 250.461,273.265 249.5,271.5C 249.093,260.169 248.759,248.836 248.5,237.5C 250.025,235.964 252.025,234.964 254.5,234.5C 252.118,231.207 251.118,227.54 251.5,223.5C 250.167,223.5 248.833,223.5 247.5,223.5C 246.514,219.03 246.181,214.363 246.5,209.5C 252.295,208.17 258.462,207.504 265,207.5C 272.292,207.612 279.459,208.279 286.5,209.5C 287.195,211.978 288.695,213.978 291,215.5C 292.976,222.278 295.809,228.612 299.5,234.5C 301.815,235.234 303.648,236.568 305,238.5C 303.809,245.301 306.142,250.301 312,253.5C 312.497,256.146 312.664,258.813 312.5,261.5C 315.167,261.5 317.833,261.5 320.5,261.5 Z"/></g>
<g><path style="opacity:1" fill="#c1d4ed" d="M 254.5,223.5 C 267.184,223.168 279.851,223.501 292.5,224.5C 295.468,231.427 298.134,238.427 300.5,245.5C 287.833,245.5 275.167,245.5 262.5,245.5C 259.833,238.167 257.167,230.833 254.5,223.5 Z"/></g>
<g><path style="opacity:1" fill="#e7ccc4" d="M 711.5,269.5 C 711.5,270.167 711.5,270.833 711.5,271.5C 710.849,272.091 710.182,272.757 709.5,273.5C 709.167,273.167 708.833,272.833 708.5,272.5C 709.126,262.722 710.459,253.055 712.5,243.5C 713.814,244.313 714.981,245.313 716,246.5C 715.929,254.45 714.429,262.117 711.5,269.5 Z"/></g>
<g><path style="opacity:1" fill="#e9cac5" d="M 698.5,237.5 C 696.33,236.251 693.996,235.251 691.5,234.5C 689.226,234.97 687.226,235.97 685.5,237.5C 684.148,236.104 682.481,235.437 680.5,235.5C 675.432,236.734 670.932,239.067 667,242.5C 666.333,245.5 666.333,248.5 667,251.5C 668.233,248.583 669.733,245.916 671.5,243.5C 673.5,247.167 675.5,250.833 677.5,254.5C 678.002,255.521 678.668,255.688 679.5,255C 678.304,254.346 678.304,253.846 679.5,253.5C 682.987,254.522 684.32,256.855 683.5,260.5C 683.395,264.548 683.728,268.548 684.5,272.5C 679.291,272.859 674.291,273.859 669.5,275.5C 672.277,272.013 673.111,268.013 672,263.5C 668.485,261.145 666.485,257.812 666,253.5C 662.743,243.343 666.243,237.01 676.5,234.5C 683.5,233.167 690.5,233.167 697.5,234.5C 698.127,235.417 698.461,236.417 698.5,237.5 Z"/></g>
<g><path style="opacity:1" fill="#e8eefa" d="M 773.5,255.5 C 773.387,258.049 774.054,260.382 775.5,262.5C 779.445,263.491 783.445,263.824 787.5,263.5C 787.037,260.779 786.371,258.112 785.5,255.5C 785.833,255.5 786.167,255.5 786.5,255.5C 791.096,256.095 793.762,258.762 794.5,263.5C 794.803,271.889 794.47,280.222 793.5,288.5C 789,288.833 784.5,289.167 780,289.5C 775.081,289.468 770.414,288.801 766,287.5C 763.544,289.321 760.711,289.988 757.5,289.5C 758.324,286.236 758.658,282.902 758.5,279.5C 759.655,274.551 760.989,269.551 762.5,264.5C 762.823,257.516 766.49,254.516 773.5,255.5 Z"/></g>
<g><path style="opacity:1" fill="#c6d2ea" d="M 275.5,253.5 C 279.744,254.643 284.077,255.31 288.5,255.5C 289.092,258.127 289.425,260.794 289.5,263.5C 285.116,263.826 280.783,263.492 276.5,262.5C 275.593,259.579 275.26,256.579 275.5,253.5 Z"/></g>
<g><path style="opacity:1" fill="#0b2240" d="M 405.5,288.5 C 404.833,288.5 404.5,288.833 404.5,289.5C 401.755,297.732 398.422,305.732 394.5,313.5C 390.23,316.141 385.896,316.141 381.5,313.5C 379.944,314.547 378.277,315.214 376.5,315.5C 376.5,316.833 376.5,318.167 376.5,319.5C 376.5,325.5 376.5,331.5 376.5,337.5C 374.879,337.787 373.879,338.787 373.5,340.5C 367.833,341.833 362.167,341.833 356.5,340.5C 354.711,338.967 352.711,337.967 350.5,337.5C 343.21,329.107 337.544,319.607 333.5,309C 305.835,308.5 278.169,308.333 250.5,308.5C 249.502,337.995 249.169,367.662 249.5,397.5C 248.833,397.5 248.167,397.5 247.5,397.5C 247.5,366.833 247.5,336.167 247.5,305.5C 275.5,305.5 303.5,305.5 331.5,305.5C 331.627,300.745 330.294,296.412 327.5,292.5C 301.5,291.833 275.5,291.167 249.5,290.5C 249.059,284.481 249.059,278.147 249.5,271.5C 250.461,273.265 250.795,275.265 250.5,277.5C 250.194,280.385 250.527,283.052 251.5,285.5C 251.5,286.833 251.5,288.167 251.5,289.5C 276.995,290.498 302.661,290.831 328.5,290.5C 328.784,288.585 328.451,286.919 327.5,285.5C 327.335,282.482 327.502,279.482 328,276.5C 336.633,267.722 347.133,262.556 359.5,261C 375.58,258.773 390.913,261.106 405.5,268C 411.955,274.725 411.955,281.558 405.5,288.5 Z"/></g>
<g><path style="opacity:1" fill="#dfb49a" d="M 724.5,257.5 C 729.066,258.797 733.733,258.797 738.5,257.5C 743.32,266.805 745.32,276.805 744.5,287.5C 735.808,287.831 727.141,287.498 718.5,286.5C 717.607,283.916 717.274,281.249 717.5,278.5C 719.265,277.539 721.265,277.205 723.5,277.5C 723.511,275.453 723.844,273.453 724.5,271.5C 724.332,269.829 723.665,268.496 722.5,267.5C 718.5,267.5 716.5,265.5 716.5,261.5C 717.5,261.5 718.5,261.5 719.5,261.5C 719.5,260.167 719.5,258.833 719.5,257.5C 721.167,257.5 722.833,257.5 724.5,257.5 Z"/></g>
<g><path style="opacity:1" fill="#798eb3" d="M 722.5,267.5 C 723.665,268.496 724.332,269.829 724.5,271.5C 723.844,273.453 723.511,275.453 723.5,277.5C 721.265,277.205 719.265,277.539 717.5,278.5C 717.167,278.5 716.833,278.5 716.5,278.5C 714.723,277.4 712.723,276.566 710.5,276C 711.38,274.644 711.714,273.144 711.5,271.5C 711.5,270.833 711.5,270.167 711.5,269.5C 712.482,268.859 713.482,268.193 714.5,267.5C 716.432,268.366 718.432,269.033 720.5,269.5C 721.713,269.253 722.38,268.586 722.5,267.5 Z"/></g>
<g><path style="opacity:1" fill="#c8a1a9" d="M 684.5,272.5 C 687.389,277.808 689.722,283.475 691.5,289.5C 681.833,289.5 672.167,289.5 662.5,289.5C 663.364,285.048 664.698,280.714 666.5,276.5C 667.325,275.614 668.325,275.281 669.5,275.5C 674.291,273.859 679.291,272.859 684.5,272.5 Z"/></g>
<g><path style="opacity:1" fill="#788eb3" d="M 758.5,279.5 C 758.658,282.902 758.324,286.236 757.5,289.5C 757.5,289.833 757.5,290.167 757.5,290.5C 719.33,290.832 681.33,290.499 643.5,289.5C 649.833,289.5 656.167,289.5 662.5,289.5C 672.167,289.5 681.833,289.5 691.5,289.5C 700.167,289.5 708.833,289.5 717.5,289.5C 726.833,289.5 736.167,289.5 745.5,289.5C 745.5,285.5 745.5,281.5 745.5,277.5C 747.167,277.5 748.833,277.5 750.5,277.5C 749.058,269.847 750.058,269.68 753.5,277C 755.744,277.05 757.411,277.883 758.5,279.5 Z"/></g>
<g><path style="opacity:1" fill="#7990b9" d="M 624.5,245.5 C 625.768,257.667 626.768,270 627.5,282.5C 626.71,281.391 626.21,280.058 626,278.5C 622.298,283.884 617.298,287.217 611,288.5C 609.289,288.561 607.956,287.894 607,286.5C 606.51,287.793 606.343,289.127 606.5,290.5C 596.167,290.5 585.833,290.5 575.5,290.5C 575.665,286.818 575.499,283.152 575,279.5C 573.236,281.389 571.736,283.389 570.5,285.5C 570.34,283.801 570.506,282.134 571,280.5C 573.358,278.976 575.191,276.976 576.5,274.5C 577.325,273.614 578.325,273.281 579.5,273.5C 579.857,269.605 581.857,268.605 585.5,270.5C 585.513,275.463 585.847,280.463 586.5,285.5C 589.602,284.718 592.768,284.718 596,285.5C 599.315,284.974 602.481,283.974 605.5,282.5C 605.833,281.833 606.167,281.167 606.5,280.5C 605.651,274.988 604.318,269.655 602.5,264.5C 602.579,262.872 602.912,261.205 603.5,259.5C 604.905,265.634 607.905,270.968 612.5,275.5C 617.47,272.525 621.804,268.858 625.5,264.5C 624.581,258.206 624.247,251.873 624.5,245.5 Z"/></g>
<g><path style="opacity:1" fill="#a79aad" d="M 320.5,261.5 C 321.65,266.316 321.816,271.316 321,276.5C 317.512,278.993 314.678,282.16 312.5,286C 309.5,286.667 306.5,286.667 303.5,286C 302.5,284.333 301.5,282.667 300.5,281C 291.482,280.168 282.482,280.335 273.5,281.5C 272.872,283.258 271.872,284.758 270.5,286C 267.5,286.667 264.5,286.667 261.5,286C 260.013,281.024 256.68,279.191 251.5,280.5C 251.5,282.167 251.5,283.833 251.5,285.5C 250.527,283.052 250.194,280.385 250.5,277.5C 252.833,277.5 255.167,277.5 257.5,277.5C 257.298,275.011 257.798,272.677 259,270.5C 266.913,265.532 271.08,267.865 271.5,277.5C 281.5,277.5 291.5,277.5 301.5,277.5C 301.5,278.5 301.5,279.5 301.5,280.5C 305.833,280.5 310.167,280.5 314.5,280.5C 314.5,279.5 314.5,278.5 314.5,277.5C 316.167,277.5 317.833,277.5 319.5,277.5C 320.275,272.203 320.608,266.87 320.5,261.5 Z"/></g>
<g><path style="opacity:1" fill="#c6dcfa" d="M 627.5,282.5 C 627.5,285.167 627.5,287.833 627.5,290.5C 620.5,290.5 613.5,290.5 606.5,290.5C 606.343,289.127 606.51,287.793 607,286.5C 607.956,287.894 609.289,288.561 611,288.5C 617.298,287.217 622.298,283.884 626,278.5C 626.21,280.058 626.71,281.391 627.5,282.5 Z"/></g>
<g><path style="opacity:1" fill="#c2dafb" d="M 575.5,290.5 C 573.5,290.5 571.5,290.5 569.5,290.5C 570.038,288.883 570.371,287.216 570.5,285.5C 571.736,283.389 573.236,281.389 575,279.5C 575.499,283.152 575.665,286.818 575.5,290.5 Z"/></g>
<g><path style="opacity:1" fill="#7492be" d="M 543.5,277.5 C 544.167,281.833 544.833,286.167 545.5,290.5C 536.5,290.5 527.5,290.5 518.5,290.5C 518.176,286.445 518.509,282.445 519.5,278.5C 527.648,281.265 535.648,280.931 543.5,277.5 Z"/></g>
<g><path style="opacity:1" fill="#d1c5cb" d="M 741.5,243.5 C 743.066,250.092 744.566,256.758 746,263.5C 746.789,265.58 747.956,267.414 749.5,269C 748.968,271.02 747.635,271.853 745.5,271.5C 745.5,273.5 745.5,275.5 745.5,277.5C 745.5,281.5 745.5,285.5 745.5,289.5C 736.167,289.5 726.833,289.5 717.5,289.5C 716.656,285.901 716.323,282.234 716.5,278.5C 716.833,278.5 717.167,278.5 717.5,278.5C 717.274,281.249 717.607,283.916 718.5,286.5C 727.141,287.498 735.808,287.831 744.5,287.5C 745.32,276.805 743.32,266.805 738.5,257.5C 739.285,252.248 739.785,246.915 740,241.5C 740.278,242.416 740.778,243.082 741.5,243.5 Z"/></g>
<g><path style="opacity:1" fill="#647da0" d="M 327.5,285.5 C 328.451,286.919 328.784,288.585 328.5,290.5C 302.661,290.831 276.995,290.498 251.5,289.5C 276.833,289.5 302.167,289.5 327.5,289.5C 327.5,288.167 327.5,286.833 327.5,285.5 Z"/></g>
<g><path style="opacity:1" fill="#697e9c" d="M 429.5,287.5 C 430.404,288.209 430.737,289.209 430.5,290.5C 421.983,290.174 413.65,290.507 405.5,291.5C 404.662,291.158 404.328,290.492 404.5,289.5C 404.5,288.833 404.833,288.5 405.5,288.5C 409.319,289.166 413.319,289.499 417.5,289.5C 421.893,289.491 425.893,288.824 429.5,287.5 Z"/></g>
<g><path style="opacity:1" fill="#143465" d="M 442.5,411.5 C 437.548,407.215 432.881,402.548 428.5,397.5C 429.309,395.708 429.809,393.708 430,391.5C 430.826,393.405 431.993,393.739 433.5,392.5C 432.183,377.986 431.516,363.32 431.5,348.5C 431.516,333.68 432.183,319.014 433.5,304.5C 424.859,303.502 416.192,303.169 407.5,303.5C 407.5,300.833 407.5,298.167 407.5,295.5C 407.5,294.167 407.5,292.833 407.5,291.5C 416.986,291.006 426.319,291.673 435.5,293.5C 435.5,294.833 435.5,296.167 435.5,297.5C 436.833,297.5 438.167,297.5 439.5,297.5C 439.5,298.833 439.5,300.167 439.5,301.5C 441.5,300.833 443.5,300.167 445.5,299.5C 445.167,302.167 444.833,304.833 444.5,307.5C 442.263,308.449 439.929,309.116 437.5,309.5C 437.5,338.833 437.5,368.167 437.5,397.5C 436.167,397.5 434.833,397.5 433.5,397.5C 433.238,398.978 433.571,400.311 434.5,401.5C 437.974,404.295 440.641,407.628 442.5,411.5 Z"/></g>
<g><path style="opacity:1" fill="#16335e" d="M 438.5,195.5 C 441.497,220.104 443.83,244.771 445.5,269.5C 445.845,278.172 446.345,286.838 447,295.5C 510.952,293.506 575.119,292.839 639.5,293.5C 639.5,295.5 639.5,297.5 639.5,299.5C 698.472,301.052 757.472,302.052 816.5,302.5C 819.027,303.214 821.527,303.88 824,304.5C 824.436,306.847 824.936,309.181 825.5,311.5C 825.253,312.713 824.586,313.38 823.5,313.5C 823.5,310.833 823.5,308.167 823.5,305.5C 762.496,305.167 701.496,305.5 640.5,306.5C 639.842,319.79 639.509,333.123 639.5,346.5C 639.535,360.32 640.202,373.987 641.5,387.5C 636.833,387.5 632.167,387.5 627.5,387.5C 627.667,360.831 627.5,334.165 627,307.5C 626.5,307 626,306.5 625.5,306C 565.501,305.5 505.501,305.333 445.5,305.5C 444.833,340.833 444.167,376.167 443.5,411.5C 443.167,411.5 442.833,411.5 442.5,411.5C 440.641,407.628 437.974,404.295 434.5,401.5C 433.571,400.311 433.238,398.978 433.5,397.5C 434.833,397.5 436.167,397.5 437.5,397.5C 437.5,368.167 437.5,338.833 437.5,309.5C 439.929,309.116 442.263,308.449 444.5,307.5C 444.833,304.833 445.167,302.167 445.5,299.5C 443.5,300.167 441.5,300.833 439.5,301.5C 439.5,300.167 439.5,298.833 439.5,297.5C 438.167,297.5 436.833,297.5 435.5,297.5C 435.5,296.167 435.5,294.833 435.5,293.5C 426.319,291.673 416.986,291.006 407.5,291.5C 407.5,292.833 407.5,294.167 407.5,295.5C 407.167,295.5 406.833,295.5 406.5,295.5C 406.768,293.901 406.434,292.568 405.5,291.5C 413.65,290.507 421.983,290.174 430.5,290.5C 430.737,289.209 430.404,288.209 429.5,287.5C 427.354,249.119 424.687,210.785 421.5,172.5C 422.477,169.713 422.81,166.713 422.5,163.5C 361.833,163.5 301.167,163.5 240.5,163.5C 301.158,161.504 362.158,160.837 423.5,161.5C 424.482,176.84 425.649,192.173 427,207.5C 428.308,210.73 429.308,214.064 430,217.5C 429.916,226.246 430.083,234.912 430.5,243.5C 433.664,243.558 436.664,244.224 439.5,245.5C 438.711,228.846 438.378,212.179 438.5,195.5 Z"/></g>
<g><path style="opacity:1" fill="#112340" d="M 627.5,387.5 C 626.833,387.5 626.167,387.5 625.5,387.5C 625.5,361.167 625.5,334.833 625.5,308.5C 566.167,308.5 506.833,308.5 447.5,308.5C 447.5,339.5 447.5,370.5 447.5,401.5C 446.115,404.259 445.448,407.259 445.5,410.5C 446.046,413.566 446.712,416.566 447.5,419.5C 445.13,417.427 443.797,414.76 443.5,411.5C 444.167,376.167 444.833,340.833 445.5,305.5C 505.501,305.333 565.501,305.5 625.5,306C 626,306.5 626.5,307 627,307.5C 627.5,334.165 627.667,360.831 627.5,387.5 Z"/></g>
<g><path style="opacity:1" fill="#cfdefc" d="M 407.5,308.5 C 414.167,308.5 420.833,308.5 427.5,308.5C 427.5,338.167 427.5,367.833 427.5,397.5C 417.458,390.646 406.458,385.813 394.5,383C 393.619,382.292 392.953,381.458 392.5,380.5C 390.179,377.371 387.512,374.538 384.5,372C 381.16,370.997 378.16,369.497 375.5,367.5C 378.833,368.167 382.167,368.833 385.5,369.5C 385.5,363.5 385.5,357.5 385.5,351.5C 389.884,351.826 394.217,351.492 398.5,350.5C 401.638,345.066 403.971,339.4 405.5,333.5C 407.468,325.567 408.135,317.234 407.5,308.5 Z"/></g>
<g><path style="opacity:1" fill="#d3bbaf" d="M 406.5,295.5 C 406.833,295.5 407.167,295.5 407.5,295.5C 407.5,298.167 407.5,300.833 407.5,303.5C 407.5,305.167 407.5,306.833 407.5,308.5C 408.135,317.234 407.468,325.567 405.5,333.5C 406.374,320.856 406.708,308.189 406.5,295.5 Z"/></g>
<g><path style="opacity:1" fill="#cfdefd" d="M 820.5,433.5 C 799.833,433.5 779.167,433.5 758.5,433.5C 758.5,432.167 758.5,430.833 758.5,429.5C 774.083,431.301 789.749,431.967 805.5,431.5C 805.832,419.482 805.499,407.482 804.5,395.5C 803.725,393.604 802.725,391.937 801.5,390.5C 802.987,387.737 803.654,384.737 803.5,381.5C 803.23,376.621 802.063,371.954 800,367.5C 801.343,358.336 798.51,351.002 791.5,345.5C 791.461,344.417 791.127,343.417 790.5,342.5C 775.125,338.596 765.625,344.263 762,359.5C 760.861,362.823 759.027,365.49 756.5,367.5C 756.14,360.44 752.974,355.106 747,351.5C 746.503,348.854 746.336,346.187 746.5,343.5C 747.5,343.5 748.5,343.5 749.5,343.5C 749.577,337.748 750.244,332.081 751.5,326.5C 748.188,326.057 744.855,325.724 741.5,325.5C 738.957,325.64 736.623,326.306 734.5,327.5C 732.507,332.519 733.507,336.686 737.5,340C 738.33,341.465 738.496,342.965 738,344.5C 734.288,347.765 730.954,351.432 728,355.5C 727.272,360.747 725.772,365.747 723.5,370.5C 721.184,367.531 719.851,364.198 719.5,360.5C 716.482,360.296 713.482,359.963 710.5,359.5C 712.374,354.052 714.374,348.552 716.5,343C 714.467,340.476 713.134,337.642 712.5,334.5C 707.793,333.318 703.126,331.818 698.5,330C 696.19,329.503 693.857,329.337 691.5,329.5C 691.335,332.518 691.502,335.518 692,338.5C 693,339.167 694,339.833 695,340.5C 695.333,342.833 695.667,345.167 696,347.5C 697.401,349.192 699.234,349.859 701.5,349.5C 701.74,352.579 701.407,355.579 700.5,358.5C 697.291,359.439 694.124,360.439 691,361.5C 688.664,369.559 686.33,377.559 684,385.5C 682.439,381.751 680.606,378.084 678.5,374.5C 676.5,373.5 674.5,372.5 672.5,371.5C 671.534,369.604 671.201,367.604 671.5,365.5C 672.5,365.5 673.5,365.5 674.5,365.5C 675.582,360.231 676.415,354.897 677,349.5C 671.183,342.82 664.516,341.82 657,346.5C 653.689,352.176 652.856,358.176 654.5,364.5C 656.924,364.192 659.257,364.526 661.5,365.5C 660.902,366.795 660.402,368.128 660,369.5C 650.119,371.546 644.619,377.546 643.5,387.5C 643.167,387.5 642.833,387.5 642.5,387.5C 642.5,361.167 642.5,334.833 642.5,308.5C 701.833,308.5 761.167,308.5 820.5,308.5C 820.5,350.167 820.5,391.833 820.5,433.5 Z"/></g>
<g><path style="opacity:1" fill="#cfddfb" d="M 625.5,387.5 C 619.25,389.459 612.584,390.126 605.5,389.5C 601.859,404.133 598.193,418.8 594.5,433.5C 583.5,433.5 572.5,433.5 561.5,433.5C 561.253,427.992 560.087,422.659 558,417.5C 557.667,410.167 557.333,402.833 557,395.5C 556.261,391.938 554.761,388.772 552.5,386C 548.849,384.013 545.349,381.847 542,379.5C 540.264,373.611 537.764,368.111 534.5,363C 514.943,355.537 505.776,362.37 507,383.5C 503.195,388.742 502.528,394.409 505,400.5C 505.671,401.252 506.504,401.586 507.5,401.5C 506.235,402.479 504.901,403.479 503.5,404.5C 508.706,406.402 508.373,407.402 502.5,407.5C 501.834,415.483 501.501,423.483 501.5,431.5C 494.745,430.877 488.412,431.544 482.5,433.5C 473.833,433.5 465.167,433.5 456.5,433.5C 454.386,431.16 452.719,428.493 451.5,425.5C 452.75,425.577 453.583,426.244 454,427.5C 454.499,422.177 454.666,416.844 454.5,411.5C 454.253,408.843 453.253,406.51 451.5,404.5C 453.136,400.904 454.469,397.238 455.5,393.5C 456.822,393.67 457.989,393.337 459,392.5C 459.471,390.754 460.138,389.087 461,387.5C 461.383,388.056 461.883,388.389 462.5,388.5C 458.692,396.718 456.692,405.218 456.5,414C 458.134,414.494 459.801,414.66 461.5,414.5C 462.219,420.321 463.552,425.988 465.5,431.5C 470.544,431.827 475.544,431.494 480.5,430.5C 482.003,425.16 483.003,419.827 483.5,414.5C 484.117,414.389 484.617,414.056 485,413.5C 485.938,405.378 485.438,397.378 483.5,389.5C 486.708,387.926 488.042,385.259 487.5,381.5C 488.675,381.719 489.675,381.386 490.5,380.5C 491.833,378.5 493.167,376.5 494.5,374.5C 493.833,374.167 493.167,373.833 492.5,373.5C 490.028,374.992 487.361,375.658 484.5,375.5C 484.5,370.5 484.5,365.5 484.5,360.5C 483.022,360.762 481.689,360.429 480.5,359.5C 481.223,357.836 480.89,356.169 479.5,354.5C 478.675,353.614 477.675,353.281 476.5,353.5C 476.5,352.167 476.5,350.833 476.5,349.5C 477.5,349.5 478.5,349.5 479.5,349.5C 479.5,347.5 479.5,345.5 479.5,343.5C 480.979,340.857 480.646,338.357 478.5,336C 466.537,332.301 461.703,336.801 464,349.5C 465.356,350.38 466.856,350.714 468.5,350.5C 468.579,351.93 468.246,353.264 467.5,354.5C 464.331,354.983 461.664,356.316 459.5,358.5C 465.959,359.97 465.626,360.637 458.5,360.5C 458.716,362.681 457.883,364.347 456,365.5C 455.881,372.305 453.715,378.305 449.5,383.5C 448.504,389.463 448.171,395.463 448.5,401.5C 448.167,401.5 447.833,401.5 447.5,401.5C 447.5,370.5 447.5,339.5 447.5,308.5C 506.833,308.5 566.167,308.5 625.5,308.5C 625.5,334.833 625.5,361.167 625.5,387.5 Z"/></g>
<g><path style="opacity:1" fill="#461506" d="M 394.5,313.5 C 394.141,315.371 393.141,316.871 391.5,318C 388.57,317.561 385.57,317.061 382.5,316.5C 379.644,316.073 377.644,317.073 376.5,319.5C 376.5,318.167 376.5,316.833 376.5,315.5C 378.277,315.214 379.944,314.547 381.5,313.5C 385.896,316.141 390.23,316.141 394.5,313.5 Z"/></g>
<g><path style="opacity:1" fill="#cfdffe" d="M 250.5,308.5 C 278.169,308.333 305.835,308.5 333.5,309C 337.544,319.607 343.21,329.107 350.5,337.5C 350.5,337.833 350.5,338.167 350.5,338.5C 349.315,344.238 347.982,349.905 346.5,355.5C 353.582,357.464 360.582,359.797 367.5,362.5C 370.633,363.716 373.3,365.383 375.5,367.5C 365.956,363.899 356.289,360.565 346.5,357.5C 342.778,358.941 340.444,361.607 339.5,365.5C 338.31,367.355 336.977,369.188 335.5,371C 318.543,374.096 302.543,379.763 287.5,388C 284.223,390.766 281.557,393.933 279.5,397.5C 278.711,397.783 278.044,398.283 277.5,399C 268.506,399.5 259.506,399.666 250.5,399.5C 250.5,369.167 250.5,338.833 250.5,308.5 Z"/></g>
<g><path style="opacity:1" fill="#fcb47b" d="M 404.5,289.5 C 404.328,290.492 404.662,291.158 405.5,291.5C 406.434,292.568 406.768,293.901 406.5,295.5C 406.708,308.189 406.374,320.856 405.5,333.5C 403.971,339.4 401.638,345.066 398.5,350.5C 394.217,351.492 389.884,351.826 385.5,351.5C 385.5,357.5 385.5,363.5 385.5,369.5C 382.167,368.833 378.833,368.167 375.5,367.5C 373.3,365.383 370.633,363.716 367.5,362.5C 360.582,359.797 353.582,357.464 346.5,355.5C 347.982,349.905 349.315,344.238 350.5,338.5C 358.04,345.14 366.206,346.14 375,341.5C 375.791,340.255 376.291,338.922 376.5,337.5C 376.5,331.5 376.5,325.5 376.5,319.5C 377.644,317.073 379.644,316.073 382.5,316.5C 385.57,317.061 388.57,317.561 391.5,318C 393.141,316.871 394.141,315.371 394.5,313.5C 398.422,305.732 401.755,297.732 404.5,289.5 Z"/></g>
<g><path style="opacity:1" fill="#1b3256" d="M 407.5,303.5 C 416.192,303.169 424.859,303.502 433.5,304.5C 432.183,319.014 431.516,333.68 431.5,348.5C 431.516,363.32 432.183,377.986 433.5,392.5C 431.993,393.739 430.826,393.405 430,391.5C 429.809,393.708 429.309,395.708 428.5,397.5C 428.167,397.5 427.833,397.5 427.5,397.5C 427.5,367.833 427.5,338.167 427.5,308.5C 420.833,308.5 414.167,308.5 407.5,308.5C 407.5,306.833 407.5,305.167 407.5,303.5 Z"/></g>
<g><path style="opacity:1" fill="#c0d3f8" d="M 756.5,367.5 C 755.022,367.238 753.689,367.571 752.5,368.5C 748.727,370.443 746.394,373.443 745.5,377.5C 745.616,380.86 745.949,384.193 746.5,387.5C 712.167,388.833 677.833,388.833 643.5,387.5C 644.619,377.546 650.119,371.546 660,369.5C 660.402,368.128 660.902,366.795 661.5,365.5C 659.257,364.526 656.924,364.192 654.5,364.5C 652.856,358.176 653.689,352.176 657,346.5C 664.516,341.82 671.183,342.82 677,349.5C 676.415,354.897 675.582,360.231 674.5,365.5C 673.5,365.5 672.5,365.5 671.5,365.5C 671.201,367.604 671.534,369.604 672.5,371.5C 674.5,372.5 676.5,373.5 678.5,374.5C 680.606,378.084 682.439,381.751 684,385.5C 686.33,377.559 688.664,369.559 691,361.5C 694.124,360.439 697.291,359.439 700.5,358.5C 701.407,355.579 701.74,352.579 701.5,349.5C 699.234,349.859 697.401,349.192 696,347.5C 695.667,345.167 695.333,342.833 695,340.5C 694,339.833 693,339.167 692,338.5C 691.502,335.518 691.335,332.518 691.5,329.5C 693.857,329.337 696.19,329.503 698.5,330C 703.126,331.818 707.793,333.318 712.5,334.5C 713.134,337.642 714.467,340.476 716.5,343C 714.374,348.552 712.374,354.052 710.5,359.5C 713.482,359.963 716.482,360.296 719.5,360.5C 719.851,364.198 721.184,367.531 723.5,370.5C 725.772,365.747 727.272,360.747 728,355.5C 730.954,351.432 734.288,347.765 738,344.5C 738.496,342.965 738.33,341.465 737.5,340C 733.507,336.686 732.507,332.519 734.5,327.5C 736.623,326.306 738.957,325.64 741.5,325.5C 744.855,325.724 748.188,326.057 751.5,326.5C 750.244,332.081 749.577,337.748 749.5,343.5C 748.5,343.5 747.5,343.5 746.5,343.5C 746.336,346.187 746.503,348.854 747,351.5C 752.974,355.106 756.14,360.44 756.5,367.5 Z"/></g>
<g><path style="opacity:1" fill="#828eb0" d="M 547.5,340.5 C 546.641,337.707 545.308,335.04 543.5,332.5C 540.914,331.52 538.247,331.187 535.5,331.5C 539.546,326.323 544.546,325.323 550.5,328.5C 552.272,333.21 551.272,337.21 547.5,340.5 Z"/></g>
<g><path style="opacity:1" fill="#7e8ead" d="M 577.5,348.5 C 577.785,344.962 576.118,343.129 572.5,343C 571.107,341.829 570.273,340.329 570,338.5C 568.108,339.617 567.275,341.284 567.5,343.5C 567.167,343.5 566.833,343.5 566.5,343.5C 566.143,339.336 567.81,336.169 571.5,334C 575.884,332.666 580.217,331.666 584.5,331C 585.894,331.956 586.561,333.289 586.5,335C 584.23,338.041 583.063,341.541 583,345.5C 581.736,347.607 579.903,348.607 577.5,348.5 Z"/></g>
<g><path style="opacity:1" fill="#113276" d="M 236.5,336.5 C 207.5,336.5 178.5,336.5 149.5,336.5C 138.833,336.5 128.167,336.5 117.5,336.5C 117.167,336.5 116.833,336.5 116.5,336.5C 156.319,334.635 196.319,333.635 236.5,333.5C 236.5,334.5 236.5,335.5 236.5,336.5 Z"/></g>
<g><path style="opacity:1" fill="#808ba9" d="M 479.5,343.5 C 478.591,335.757 476.924,335.591 474.5,343C 472.866,343.494 471.199,343.66 469.5,343.5C 469.5,345.833 469.5,348.167 469.5,350.5C 469.167,350.5 468.833,350.5 468.5,350.5C 466.856,350.714 465.356,350.38 464,349.5C 461.703,336.801 466.537,332.301 478.5,336C 480.646,338.357 480.979,340.857 479.5,343.5 Z"/></g>
<g><path style="opacity:1" fill="#26478c" d="M 149.5,336.5 C 178.5,336.5 207.5,336.5 236.5,336.5C 236.5,356.833 236.5,377.167 236.5,397.5C 240.167,397.5 243.833,397.5 247.5,397.5C 248.167,397.5 248.833,397.5 249.5,397.5C 243.242,399.3 236.575,400.133 229.5,400C 221.617,402.611 214.617,406.778 208.5,412.5C 207.614,413.325 207.281,414.325 207.5,415.5C 206.325,415.281 205.325,415.614 204.5,416.5C 198.435,424.966 194.268,434.299 192,444.5C 190.584,465.464 190.084,486.464 190.5,507.5C 183.167,507.5 175.833,507.5 168.5,507.5C 168.5,498.167 168.5,488.833 168.5,479.5C 151.5,479.5 134.5,479.5 117.5,479.5C 117.5,479.167 117.5,478.833 117.5,478.5C 134.089,477.515 150.756,477.182 167.5,477.5C 167.5,466.167 167.5,454.833 167.5,443.5C 150.833,443.5 134.167,443.5 117.5,443.5C 117.5,442.833 117.5,442.167 117.5,441.5C 134.167,441.5 150.833,441.5 167.5,441.5C 167.5,429.833 167.5,418.167 167.5,406.5C 150.833,406.5 134.167,406.5 117.5,406.5C 117.5,405.833 117.5,405.167 117.5,404.5C 134.167,404.5 150.833,404.5 167.5,404.5C 167.5,392.833 167.5,381.167 167.5,369.5C 150.833,369.5 134.167,369.5 117.5,369.5C 117.5,368.833 117.5,368.167 117.5,367.5C 134.167,367.5 150.833,367.5 167.5,367.5C 167.5,357.5 167.5,347.5 167.5,337.5C 161.31,337.823 155.31,337.49 149.5,336.5 Z"/></g>
<g><path style="opacity:1" fill="#395fa7" d="M 117.5,336.5 C 128.167,336.5 138.833,336.5 149.5,336.5C 155.31,337.49 161.31,337.823 167.5,337.5C 167.5,347.5 167.5,357.5 167.5,367.5C 150.833,367.5 134.167,367.5 117.5,367.5C 117.5,357.167 117.5,346.833 117.5,336.5 Z"/></g>
<g><path style="opacity:1" fill="#421a0e" d="M 350.5,338.5 C 350.5,338.167 350.5,337.833 350.5,337.5C 352.711,337.967 354.711,338.967 356.5,340.5C 362.167,341.833 367.833,341.833 373.5,340.5C 373.879,338.787 374.879,337.787 376.5,337.5C 376.291,338.922 375.791,340.255 375,341.5C 366.206,346.14 358.04,345.14 350.5,338.5 Z"/></g>
<g><path style="opacity:1" fill="#e0c8c5" d="M 479.5,343.5 C 479.5,345.5 479.5,347.5 479.5,349.5C 478.5,349.5 477.5,349.5 476.5,349.5C 476.5,350.833 476.5,352.167 476.5,353.5C 473.364,354.021 471.03,353.021 469.5,350.5C 469.5,348.167 469.5,345.833 469.5,343.5C 471.199,343.66 472.866,343.494 474.5,343C 476.924,335.591 478.591,335.757 479.5,343.5 Z"/></g>
<g><path style="opacity:1" fill="#b6b9c3" d="M 907.5,331.5 C 906.706,342.815 906.373,354.148 906.5,365.5C 905.834,361.18 905.501,356.68 905.5,352C 905.339,344.936 906.006,338.103 907.5,331.5 Z"/></g>
<g><path style="opacity:1" fill="#e8c9c0" d="M 577.5,348.5 C 577.5,349.5 577.5,350.5 577.5,351.5C 578.77,358.67 575.77,361.004 568.5,358.5C 569.321,356.217 569.988,353.884 570.5,351.5C 569.005,349.01 568.005,346.343 567.5,343.5C 567.275,341.284 568.108,339.617 570,338.5C 570.273,340.329 571.107,341.829 572.5,343C 576.118,343.129 577.785,344.962 577.5,348.5 Z"/></g>
<g><path style="opacity:1" fill="#eac8bd" d="M 791.5,387.5 C 789.024,390.934 785.524,392.267 781,391.5C 776.173,391.037 771.673,389.703 767.5,387.5C 770.245,386.832 772.745,385.499 775,383.5C 776.304,377.577 776.804,371.577 776.5,365.5C 778.655,365.628 780.655,365.128 782.5,364C 785.361,361.106 787.861,357.939 790,354.5C 794.706,357.591 796.373,361.924 795,367.5C 794.399,370.637 793.399,373.637 792,376.5C 790.989,377.337 789.822,377.67 788.5,377.5C 788.022,381.338 789.022,384.671 791.5,387.5 Z"/></g>
<g><path style="opacity:1" fill="#175fd0" d="M 375.5,367.5 C 378.16,369.497 381.16,370.997 384.5,372C 387.512,374.538 390.179,377.371 392.5,380.5C 391.883,380.611 391.383,380.944 391,381.5C 385.761,379.899 380.261,378.899 374.5,378.5C 373.067,376.878 371.401,375.545 369.5,374.5C 363.167,373.833 356.833,373.167 350.5,372.5C 349.167,371.167 347.833,369.833 346.5,368.5C 343.783,368.026 341.45,367.026 339.5,365.5C 340.444,361.607 342.778,358.941 346.5,357.5C 356.289,360.565 365.956,363.899 375.5,367.5 Z"/></g>
<g><path style="opacity:1" fill="#e6ecf9" d="M 547.5,341.5 C 548.5,341.5 549.5,341.5 550.5,341.5C 550.025,344.885 551.358,347.218 554.5,348.5C 556.371,351.234 557.371,354.234 557.5,357.5C 560.582,356.87 563.582,355.87 566.5,354.5C 566.78,350.953 566.78,347.287 566.5,343.5C 566.833,343.5 567.167,343.5 567.5,343.5C 568.005,346.343 569.005,349.01 570.5,351.5C 569.988,353.884 569.321,356.217 568.5,358.5C 575.77,361.004 578.77,358.67 577.5,351.5C 579.916,352.968 582.583,353.635 585.5,353.5C 587.814,359.282 589.648,365.282 591,371.5C 591.497,373.81 591.663,376.143 591.5,378.5C 589.621,377.659 587.621,377.325 585.5,377.5C 586.167,380.833 586.833,384.167 587.5,387.5C 587.287,391.516 587.954,395.35 589.5,399C 588.242,405.062 587.409,411.229 587,417.5C 586.328,421.221 585.161,424.555 583.5,427.5C 585.634,418.65 586.968,409.65 587.5,400.5C 585.117,399.613 582.784,398.613 580.5,397.5C 573.48,400.078 566.48,400.078 559.5,397.5C 559.15,392.009 559.816,386.676 561.5,381.5C 561.505,377.466 561.838,373.466 562.5,369.5C 561.5,369.5 560.5,369.5 559.5,369.5C 559.5,366.833 559.5,364.167 559.5,361.5C 558.167,361.5 556.833,361.5 555.5,361.5C 555.5,358.833 555.5,356.167 555.5,353.5C 554.167,353.5 552.833,353.5 551.5,353.5C 551.5,352.167 551.5,350.833 551.5,349.5C 549.801,349.66 548.134,349.494 546.5,349C 548.302,346.613 548.636,344.113 547.5,341.5 Z"/></g>
<g><path style="opacity:1" fill="#ac838b" d="M 791.5,345.5 C 798.51,351.002 801.343,358.336 800,367.5C 802.063,371.954 803.23,376.621 803.5,381.5C 803.654,384.737 802.987,387.737 801.5,390.5C 798.345,388.924 795.012,387.924 791.5,387.5C 789.022,384.671 788.022,381.338 788.5,377.5C 789.822,377.67 790.989,377.337 792,376.5C 793.399,373.637 794.399,370.637 795,367.5C 796.373,361.924 794.706,357.591 790,354.5C 787.861,357.939 785.361,361.106 782.5,364C 780.655,365.128 778.655,365.628 776.5,365.5C 776.804,371.577 776.304,377.577 775,383.5C 772.745,385.499 770.245,386.832 767.5,387.5C 760.5,387.5 753.5,387.5 746.5,387.5C 745.949,384.193 745.616,380.86 745.5,377.5C 749.555,373.054 754.388,369.721 760,367.5C 763.109,362.179 765.442,356.512 767,350.5C 770.617,345.68 775.45,343.68 781.5,344.5C 784.867,344.645 788.201,344.978 791.5,345.5 Z"/></g>
<g><path style="opacity:1" fill="#e6d1cb" d="M 535.5,331.5 C 538.247,331.187 540.914,331.52 543.5,332.5C 545.308,335.04 546.641,337.707 547.5,340.5C 547.5,340.833 547.5,341.167 547.5,341.5C 548.636,344.113 548.302,346.613 546.5,349C 548.134,349.494 549.801,349.66 551.5,349.5C 551.5,350.833 551.5,352.167 551.5,353.5C 552.833,353.5 554.167,353.5 555.5,353.5C 555.5,356.167 555.5,358.833 555.5,361.5C 556.833,361.5 558.167,361.5 559.5,361.5C 559.5,364.167 559.5,366.833 559.5,369.5C 560.5,369.5 561.5,369.5 562.5,369.5C 561.838,373.466 561.505,377.466 561.5,381.5C 556.125,381.828 550.792,381.495 545.5,380.5C 542.613,376.973 540.613,372.973 539.5,368.5C 540.885,367.449 541.885,366.116 542.5,364.5C 541.675,363.614 540.675,363.281 539.5,363.5C 539.351,359.678 537.351,357.345 533.5,356.5C 535.07,351.688 537.404,347.355 540.5,343.5C 538.626,339.535 536.96,335.535 535.5,331.5 Z"/></g>
<g><path style="opacity:1" fill="#e6ecfb" d="M 468.5,350.5 C 468.833,350.5 469.167,350.5 469.5,350.5C 471.03,353.021 473.364,354.021 476.5,353.5C 477.675,353.281 478.675,353.614 479.5,354.5C 480.89,356.169 481.223,357.836 480.5,359.5C 481.689,360.429 483.022,360.762 484.5,360.5C 484.5,365.5 484.5,370.5 484.5,375.5C 487.361,375.658 490.028,374.992 492.5,373.5C 493.167,373.833 493.833,374.167 494.5,374.5C 493.167,376.5 491.833,378.5 490.5,380.5C 489.675,381.386 488.675,381.719 487.5,381.5C 488.042,385.259 486.708,387.926 483.5,389.5C 482.883,387.32 481.883,385.32 480.5,383.5C 474.856,384.67 469.189,384.67 463.5,383.5C 463.634,385.292 463.301,386.958 462.5,388.5C 461.883,388.389 461.383,388.056 461,387.5C 460.138,389.087 459.471,390.754 459,392.5C 457.989,393.337 456.822,393.67 455.5,393.5C 454.469,397.238 453.136,400.904 451.5,404.5C 453.253,406.51 454.253,408.843 454.5,411.5C 452.718,410.28 450.718,409.614 448.5,409.5C 448.5,406.833 448.5,404.167 448.5,401.5C 448.171,395.463 448.504,389.463 449.5,383.5C 453.715,378.305 455.881,372.305 456,365.5C 457.883,364.347 458.716,362.681 458.5,360.5C 465.626,360.637 465.959,359.97 459.5,358.5C 461.664,356.316 464.331,354.983 467.5,354.5C 468.246,353.264 468.579,351.93 468.5,350.5 Z"/></g>
<g><path style="opacity:1" fill="#375ea7" d="M 117.5,369.5 C 134.167,369.5 150.833,369.5 167.5,369.5C 167.5,381.167 167.5,392.833 167.5,404.5C 150.833,404.5 134.167,404.5 117.5,404.5C 117.5,392.833 117.5,381.167 117.5,369.5 Z"/></g>
<g><path style="opacity:1" fill="#768baf" d="M 594.5,433.5 C 594.5,433.833 594.5,434.167 594.5,434.5C 580.5,434.5 566.5,434.5 552.5,434.5C 552.5,434.167 552.5,433.833 552.5,433.5C 551.311,424.739 549.478,416.073 547,407.5C 544.376,402.181 540.209,399.347 534.5,399C 533.058,399.377 532.058,400.21 531.5,401.5C 530.209,401.263 529.209,401.596 528.5,402.5C 522.214,404.3 516.381,403.3 511,399.5C 509.697,399.978 508.531,400.645 507.5,401.5C 506.504,401.586 505.671,401.252 505,400.5C 502.528,394.409 503.195,388.742 507,383.5C 505.776,362.37 514.943,355.537 534.5,363C 537.764,368.111 540.264,373.611 542,379.5C 545.349,381.847 548.849,384.013 552.5,386C 554.761,388.772 556.261,391.938 557,395.5C 557.333,402.833 557.667,410.167 558,417.5C 560.087,422.659 561.253,427.992 561.5,433.5C 572.5,433.5 583.5,433.5 594.5,433.5 Z"/></g>
<g><path style="opacity:1" fill="#2458ba" d="M 339.5,365.5 C 341.45,367.026 343.783,368.026 346.5,368.5C 347.833,369.833 349.167,371.167 350.5,372.5C 356.833,373.167 363.167,373.833 369.5,374.5C 371.401,375.545 373.067,376.878 374.5,378.5C 380.261,378.899 385.761,379.899 391,381.5C 391.383,380.944 391.883,380.611 392.5,380.5C 392.953,381.458 393.619,382.292 394.5,383C 406.458,385.813 417.458,390.646 427.5,397.5C 427.833,397.5 428.167,397.5 428.5,397.5C 432.881,402.548 437.548,407.215 442.5,411.5C 442.833,411.5 443.167,411.5 443.5,411.5C 443.797,414.76 445.13,417.427 447.5,419.5C 448.057,422.05 449.39,424.05 451.5,425.5C 452.719,428.493 454.386,431.16 456.5,433.5C 456.5,433.833 456.5,434.167 456.5,434.5C 461.648,440.763 466.814,447.096 472,453.5C 480.986,460.323 489.486,467.656 497.5,475.5C 499.942,477.226 502.609,478.726 505.5,480C 527.657,482.248 549.657,485.582 571.5,490C 574.367,490.801 577.034,490.634 579.5,489.5C 585.207,490.462 590.873,491.796 596.5,493.5C 596.5,498.833 596.5,504.167 596.5,509.5C 558.535,511.676 520.535,512.009 482.5,510.5C 464.571,506.269 446.905,501.269 429.5,495.5C 429.179,493.952 428.179,493.285 426.5,493.5C 425.551,518.314 423.551,542.981 420.5,567.5C 415.5,567.5 410.5,567.5 405.5,567.5C 405.667,526.165 405.5,484.832 405,443.5C 403.502,435.167 400.335,427.5 395.5,420.5C 391.51,415.842 387.51,411.175 383.5,406.5C 380.119,403.237 376.119,401.57 371.5,401.5C 371.461,400.417 371.127,399.417 370.5,398.5C 340.174,397.5 309.841,397.167 279.5,397.5C 281.557,393.933 284.223,390.766 287.5,388C 302.543,379.763 318.543,374.096 335.5,371C 336.977,369.188 338.31,367.355 339.5,365.5 Z"/></g>
<g><path style="opacity:1" fill="#e2cac4" d="M 514.5,369.5 C 515.675,369.281 516.675,369.614 517.5,370.5C 519.118,376.127 522.785,379.127 528.5,379.5C 528.141,386.196 524.808,390.862 518.5,393.5C 517.571,392.311 517.238,390.978 517.5,389.5C 516.178,389.67 515.011,389.337 514,388.5C 510.52,382.022 510.686,375.689 514.5,369.5 Z"/></g>
<g><path style="opacity:1" fill="#e5cfcb" d="M 591.5,378.5 C 592.178,383.869 594.012,388.869 597,393.5C 598.154,397.454 598.987,401.454 599.5,405.5C 598.5,405.5 597.5,405.5 596.5,405.5C 596.657,404.127 596.49,402.793 596,401.5C 592.54,398.244 591.04,394.244 591.5,389.5C 589.801,389.473 588.467,388.806 587.5,387.5C 586.833,384.167 586.167,380.833 585.5,377.5C 587.621,377.325 589.621,377.659 591.5,378.5 Z"/></g>
<g><path style="opacity:1" fill="#7d94c8" d="M 483.5,389.5 C 485.438,397.378 485.938,405.378 485,413.5C 484.617,414.056 484.117,414.389 483.5,414.5C 476.167,413.167 468.833,413.167 461.5,414.5C 459.801,414.66 458.134,414.494 456.5,414C 456.692,405.218 458.692,396.718 462.5,388.5C 463.301,386.958 463.634,385.292 463.5,383.5C 469.189,384.67 474.856,384.67 480.5,383.5C 481.883,385.32 482.883,387.32 483.5,389.5 Z"/></g>
<g><path style="opacity:1" fill="#95b8f9" d="M 642.5,387.5 C 642.833,387.5 643.167,387.5 643.5,387.5C 677.833,388.833 712.167,388.833 746.5,387.5C 753.5,387.5 760.5,387.5 767.5,387.5C 767.672,388.492 767.338,389.158 766.5,389.5C 765.833,389.5 765.167,389.5 764.5,389.5C 741.413,389.057 718.246,389.057 695,389.5C 677.154,389.5 659.654,388.833 642.5,387.5 Z"/></g>
<g><path style="opacity:1" fill="#e1bda3" d="M 767.5,387.5 C 771.673,389.703 776.173,391.037 781,391.5C 785.524,392.267 789.024,390.934 791.5,387.5C 795.012,387.924 798.345,388.924 801.5,390.5C 802.725,391.937 803.725,393.604 804.5,395.5C 805.499,407.482 805.832,419.482 805.5,431.5C 789.749,431.967 774.083,431.301 758.5,429.5C 760.955,416.516 763.955,403.682 767.5,391C 766.944,390.617 766.611,390.117 766.5,389.5C 767.338,389.158 767.672,388.492 767.5,387.5 Z"/></g>
<g><path style="opacity:1" fill="#385fa7" d="M 250.5,308.5 C 250.5,338.833 250.5,369.167 250.5,399.5C 259.506,399.666 268.506,399.5 277.5,399C 278.044,398.283 278.711,397.783 279.5,397.5C 309.841,397.167 340.174,397.5 370.5,398.5C 371.127,399.417 371.461,400.417 371.5,401.5C 365.616,399.768 359.616,399.268 353.5,400C 376.467,407.042 389.801,422.542 393.5,446.5C 393.5,486.833 393.5,527.167 393.5,567.5C 326.167,567.5 258.833,567.5 191.5,567.5C 191.83,547.326 191.497,527.326 190.5,507.5C 190.084,486.464 190.584,465.464 192,444.5C 194.268,434.299 198.435,424.966 204.5,416.5C 205.325,415.614 206.325,415.281 207.5,415.5C 207.281,414.325 207.614,413.325 208.5,412.5C 214.617,406.778 221.617,402.611 229.5,400C 236.575,400.133 243.242,399.3 249.5,397.5C 249.169,367.662 249.502,337.995 250.5,308.5 Z"/></g>
<g><path style="opacity:1" fill="#e6effd" d="M 528.5,402.5 C 529.201,412.72 530.201,423.054 531.5,433.5C 515.167,433.5 498.833,433.5 482.5,433.5C 488.412,431.544 494.745,430.877 501.5,431.5C 501.501,423.483 501.834,415.483 502.5,407.5C 508.373,407.402 508.706,406.402 503.5,404.5C 504.901,403.479 506.235,402.479 507.5,401.5C 508.531,400.645 509.697,399.978 511,399.5C 516.381,403.3 522.214,404.3 528.5,402.5 Z"/></g>
<g><path style="opacity:1" fill="#174179" d="M 371.5,401.5 C 376.119,401.57 380.119,403.237 383.5,406.5C 387.51,411.175 391.51,415.842 395.5,420.5C 400.335,427.5 403.502,435.167 405,443.5C 405.5,484.832 405.667,526.165 405.5,567.5C 410.5,567.5 415.5,567.5 420.5,567.5C 423.551,542.981 425.551,518.314 426.5,493.5C 428.179,493.285 429.179,493.952 429.5,495.5C 428.188,497.743 427.522,500.41 427.5,503.5C 426.413,525.553 424.747,547.553 422.5,569.5C 413.167,569.5 403.833,569.5 394.5,569.5C 394.832,528.33 394.499,487.33 393.5,446.5C 389.801,422.542 376.467,407.042 353.5,400C 359.616,399.268 365.616,399.768 371.5,401.5 Z"/></g>
<g><path style="opacity:1" fill="#3a5fa8" d="M 117.5,406.5 C 134.167,406.5 150.833,406.5 167.5,406.5C 167.5,418.167 167.5,429.833 167.5,441.5C 150.833,441.5 134.167,441.5 117.5,441.5C 117.5,429.833 117.5,418.167 117.5,406.5 Z"/></g>
<g><path style="opacity:1" fill="#e6edfc" d="M 552.5,433.5 C 545.833,433.5 539.167,433.5 532.5,433.5C 531.78,426.01 531.113,418.51 530.5,411C 530.542,407.749 530.875,404.583 531.5,401.5C 532.058,400.21 533.058,399.377 534.5,399C 540.209,399.347 544.376,402.181 547,407.5C 549.478,416.073 551.311,424.739 552.5,433.5 Z"/></g>
<g><path style="opacity:1" fill="#e3c3b7" d="M 483.5,414.5 C 483.003,419.827 482.003,425.16 480.5,430.5C 475.544,431.494 470.544,431.827 465.5,431.5C 463.552,425.988 462.219,420.321 461.5,414.5C 468.833,413.167 476.167,413.167 483.5,414.5 Z"/></g>
<g><path style="opacity:1" fill="#d6aa94" d="M 447.5,401.5 C 447.833,401.5 448.167,401.5 448.5,401.5C 448.5,404.167 448.5,406.833 448.5,409.5C 450.718,409.614 452.718,410.28 454.5,411.5C 454.666,416.844 454.499,422.177 454,427.5C 453.583,426.244 452.75,425.577 451.5,425.5C 449.39,424.05 448.057,422.05 447.5,419.5C 446.712,416.566 446.046,413.566 445.5,410.5C 445.448,407.259 446.115,404.259 447.5,401.5 Z"/></g>
<g><path style="opacity:1" fill="#e9c0a6" d="M 559.5,397.5 C 566.48,400.078 573.48,400.078 580.5,397.5C 582.784,398.613 585.117,399.613 587.5,400.5C 586.968,409.65 585.634,418.65 583.5,427.5C 582.566,428.568 582.232,429.901 582.5,431.5C 576.5,431.5 570.5,431.5 564.5,431.5C 562.176,420.266 560.51,408.933 559.5,397.5 Z"/></g>
<g><path style="opacity:1" fill="#9eb0cd" d="M 528.5,402.5 C 529.209,401.596 530.209,401.263 531.5,401.5C 530.875,404.583 530.542,407.749 530.5,411C 531.113,418.51 531.78,426.01 532.5,433.5C 539.167,433.5 545.833,433.5 552.5,433.5C 552.5,433.833 552.5,434.167 552.5,434.5C 520.5,434.5 488.5,434.5 456.5,434.5C 456.5,434.167 456.5,433.833 456.5,433.5C 465.167,433.5 473.833,433.5 482.5,433.5C 498.833,433.5 515.167,433.5 531.5,433.5C 530.201,423.054 529.201,412.72 528.5,402.5 Z"/></g>
<g><path style="opacity:1" fill="#113361" d="M 456.5,434.5 C 488.5,434.5 520.5,434.5 552.5,434.5C 566.5,434.5 580.5,434.5 594.5,434.5C 593.952,436.532 592.619,437.532 590.5,437.5C 590.82,440.898 590.487,444.232 589.5,447.5C 586.025,460.92 582.358,474.253 578.5,487.5C 576.833,487.5 575.167,487.5 573.5,487.5C 551.438,483.425 529.105,480.425 506.5,478.5C 503.748,476.664 500.748,475.664 497.5,475.5C 489.486,467.656 480.986,460.323 472,453.5C 466.814,447.096 461.648,440.763 456.5,434.5 Z"/></g>
<g><path style="opacity:1" fill="#395fa7" d="M 117.5,443.5 C 134.167,443.5 150.833,443.5 167.5,443.5C 167.5,454.833 167.5,466.167 167.5,477.5C 150.756,477.182 134.089,477.515 117.5,478.5C 117.5,466.833 117.5,455.167 117.5,443.5 Z"/></g>
<g><path style="opacity:1" fill="#244384" d="M 625.5,387.5 C 626.167,387.5 626.833,387.5 627.5,387.5C 632.167,387.5 636.833,387.5 641.5,387.5C 641.833,387.5 642.167,387.5 642.5,387.5C 659.654,388.833 677.154,389.5 695,389.5C 718.246,389.057 741.413,389.057 764.5,389.5C 754.778,428.237 745.112,466.904 735.5,505.5C 735.795,498.948 737.129,492.614 739.5,486.5C 686.5,485.167 633.5,485.167 580.5,486.5C 579.873,487.417 579.539,488.417 579.5,489.5C 576.918,489.975 574.918,489.308 573.5,487.5C 575.167,487.5 576.833,487.5 578.5,487.5C 582.358,474.253 586.025,460.92 589.5,447.5C 590.487,444.232 590.82,440.898 590.5,437.5C 592.619,437.532 593.952,436.532 594.5,434.5C 594.5,434.167 594.5,433.833 594.5,433.5C 598.193,418.8 601.859,404.133 605.5,389.5C 612.584,390.126 619.25,389.459 625.5,387.5 Z"/></g>
<g><path style="opacity:1" fill="#c4d9f7" d="M 611.5,394.5 C 660.833,394.5 710.167,394.5 759.5,394.5C 752.649,422.904 745.649,451.238 738.5,479.5C 713.548,480.824 688.381,481.491 663,481.5C 637.998,481.5 613.164,481.167 588.5,480.5C 596.164,451.847 603.83,423.18 611.5,394.5 Z"/></g>
<g><path style="opacity:1" fill="#29488b" d="M 617.5,399.5 C 662.402,400.172 707.402,400.838 752.5,401.5C 745.857,426.071 739.524,450.737 733.5,475.5C 687.833,475.5 642.167,475.5 596.5,475.5C 602.892,449.926 609.892,424.592 617.5,399.5 Z"/></g>
<g><path style="opacity:1" fill="#8a96b6" d="M 717.5,439.5 C 720.079,439.083 722.246,439.75 724,441.5C 725.667,438.833 727.333,438.833 729,441.5C 730.754,439.75 732.921,439.083 735.5,439.5C 735.5,440.833 735.5,442.167 735.5,443.5C 730.352,444.074 725.518,443.407 721,441.5C 719.507,443.56 717.674,443.893 715.5,442.5C 716.612,441.735 717.279,440.735 717.5,439.5 Z"/></g>
<g><path style="opacity:1" fill="#30384f" d="M 735.5,439.5 C 732.921,439.083 730.754,439.75 729,441.5C 727.333,438.833 725.667,438.833 724,441.5C 722.246,439.75 720.079,439.083 717.5,439.5C 720.087,438.184 723.087,437.517 726.5,437.5C 729.913,437.517 732.913,438.184 735.5,439.5 Z"/></g>
<g><path style="opacity:1" fill="#bfd5f7" d="M 664.5,434.5 C 679.167,434.5 693.833,434.5 708.5,434.5C 707.205,443.179 705.205,451.679 702.5,460C 687.837,460.5 673.17,460.667 658.5,460.5C 659.558,451.602 661.558,442.936 664.5,434.5 Z"/></g>
<g><path style="opacity:1" fill="#c0d4f7" d="M 614.5,434.5 C 629.167,434.5 643.833,434.5 658.5,434.5C 656.5,443.167 654.5,451.833 652.5,460.5C 637.5,460.5 622.5,460.5 607.5,460.5C 609.214,451.643 611.547,442.977 614.5,434.5 Z"/></g>
<g><path style="opacity:1" fill="#576081" d="M 720.5,427.5 C 722.766,427.141 724.599,427.808 726,429.5C 729.836,427.611 734.003,426.945 738.5,427.5C 739.052,429.331 739.052,430.997 738.5,432.5C 731.337,433.811 724.337,433.145 717.5,430.5C 718.993,429.859 719.993,428.859 720.5,427.5 Z"/></g>
<g><path style="opacity:1" fill="#7b90c5" d="M 723.5,420.5 C 725.821,420.229 727.821,420.896 729.5,422.5C 733.241,420.669 737.241,420.003 741.5,420.5C 741.831,425.332 739.497,427.332 734.5,426.5C 732.036,426.41 729.87,425.743 728,424.5C 726.847,426.497 725.347,426.83 723.5,425.5C 722.5,424.833 721.5,424.167 720.5,423.5C 721.993,422.859 722.993,421.859 723.5,420.5 Z"/></g>
<g><path style="opacity:1" fill="#8696c2" d="M 725.5,410.5 C 728.144,410.16 730.477,410.827 732.5,412.5C 736.29,410.331 740.29,409.998 744.5,411.5C 743.691,413.071 743.357,414.738 743.5,416.5C 739.445,416.824 735.445,416.491 731.5,415.5C 731.081,414.328 730.415,413.328 729.5,412.5C 728.406,413.868 728.74,415.035 730.5,416C 727.839,416.347 725.505,415.514 723.5,413.5C 724.612,412.735 725.279,411.735 725.5,410.5 Z"/></g>
<g><path style="opacity:1" fill="#b0c9f5" d="M 710.5,428.5 C 695.676,429.496 680.676,429.829 665.5,429.5C 665.232,427.901 665.566,426.568 666.5,425.5C 666.5,426.5 666.5,427.5 666.5,428.5C 669.588,428.803 671.254,427.47 671.5,424.5C 673.96,424.301 676.293,423.635 678.5,422.5C 677.675,421.614 676.675,421.281 675.5,421.5C 675.269,417.915 676.269,414.748 678.5,412C 689.281,410.648 691.281,414.314 684.5,423C 686.607,424.264 687.607,426.097 687.5,428.5C 688.833,428.5 690.167,428.5 691.5,428.5C 692.648,421.043 695.315,414.21 699.5,408C 702.057,406.881 704.557,406.715 707,407.5C 707.236,410.208 708.069,412.708 709.5,415C 708.713,417.099 708.38,419.266 708.5,421.5C 707.5,421.5 706.5,421.5 705.5,421.5C 705.5,423.833 705.5,426.167 705.5,428.5C 707.167,428.5 708.833,428.5 710.5,428.5 Z"/></g>
<g><path style="opacity:1" fill="#b0c8f5" d="M 660.5,428.5 C 646.01,429.496 631.343,429.829 616.5,429.5C 618.054,428.086 619.388,426.419 620.5,424.5C 621.72,423.289 622.887,423.289 624,424.5C 628.057,422.857 628.223,421.524 624.5,420.5C 624.625,410.432 629.125,407.766 638,412.5C 638.23,416.488 636.73,419.821 633.5,422.5C 635.333,424.166 636.666,426.166 637.5,428.5C 639.769,427.185 642.102,426.018 644.5,425C 643.5,424.167 642.5,423.333 641.5,422.5C 643.38,419.909 645.38,417.409 647.5,415C 656.191,411.443 659.358,414.276 657,423.5C 655.491,424.09 653.991,424.756 652.5,425.5C 654.796,427.552 657.463,428.552 660.5,428.5 Z"/></g>
<g><path style="opacity:1" fill="#caddfb" d="M 671.5,403.5 C 686.167,403.5 700.833,403.5 715.5,403.5C 716.124,403.917 716.457,404.584 716.5,405.5C 714.391,413.167 712.391,420.833 710.5,428.5C 708.833,428.5 707.167,428.5 705.5,428.5C 705.5,426.167 705.5,423.833 705.5,421.5C 706.5,421.5 707.5,421.5 708.5,421.5C 708.38,419.266 708.713,417.099 709.5,415C 708.069,412.708 707.236,410.208 707,407.5C 704.557,406.715 702.057,406.881 699.5,408C 695.315,414.21 692.648,421.043 691.5,428.5C 690.167,428.5 688.833,428.5 687.5,428.5C 687.607,426.097 686.607,424.264 684.5,423C 691.281,414.314 689.281,410.648 678.5,412C 676.269,414.748 675.269,417.915 675.5,421.5C 676.675,421.281 677.675,421.614 678.5,422.5C 676.293,423.635 673.96,424.301 671.5,424.5C 671.254,427.47 669.588,428.803 666.5,428.5C 666.5,427.5 666.5,426.5 666.5,425.5C 668.48,418.248 670.146,410.914 671.5,403.5 Z"/></g>
<g><path style="opacity:1" fill="#8996d2" d="M 745.5,403.5 C 745.5,404.833 745.5,406.167 745.5,407.5C 739.729,408.113 734.396,407.446 729.5,405.5C 731.367,405.045 733.2,404.378 735,403.5C 736.326,403.755 737.326,404.422 738,405.5C 740.106,403.709 742.606,403.042 745.5,403.5 Z"/></g>
<g><path style="opacity:1" fill="#c9ddfb" d="M 621.5,403.5 C 635.833,403.5 650.167,403.5 664.5,403.5C 665.497,403.47 666.164,403.97 666.5,405C 664.308,412.8 662.308,420.633 660.5,428.5C 657.463,428.552 654.796,427.552 652.5,425.5C 653.991,424.756 655.491,424.09 657,423.5C 659.358,414.276 656.191,411.443 647.5,415C 645.38,417.409 643.38,419.909 641.5,422.5C 642.5,423.333 643.5,424.167 644.5,425C 642.102,426.018 639.769,427.185 637.5,428.5C 636.666,426.166 635.333,424.166 633.5,422.5C 636.73,419.821 638.23,416.488 638,412.5C 629.125,407.766 624.625,410.432 624.5,420.5C 628.223,421.524 628.057,422.857 624,424.5C 622.887,423.289 621.72,423.289 620.5,424.5C 619.388,426.419 618.054,428.086 616.5,429.5C 615.861,428.903 615.528,428.07 615.5,427C 617.582,419.171 619.582,411.338 621.5,403.5 Z"/></g>
<g><path style="opacity:1" fill="#323c5a" d="M 745.5,403.5 C 742.606,403.042 740.106,403.709 738,405.5C 737.326,404.422 736.326,403.755 735,403.5C 733.2,404.378 731.367,405.045 729.5,405.5C 728.665,404.057 727.332,403.057 725.5,402.5C 728.833,402.167 732.167,401.833 735.5,401.5C 739.239,401.514 742.572,402.18 745.5,403.5 Z"/></g>
<g><path style="opacity:1" fill="#2b365a" d="M 715.5,403.5 C 700.833,403.5 686.167,403.5 671.5,403.5C 678.468,402.169 685.802,401.503 693.5,401.5C 701.198,401.503 708.532,402.169 715.5,403.5 Z"/></g>
<g><path style="opacity:1" fill="#25355a" d="M 664.5,403.5 C 650.167,403.5 635.833,403.5 621.5,403.5C 628.301,402.169 635.467,401.503 643,401.5C 650.533,401.503 657.699,402.169 664.5,403.5 Z"/></g>
<g><path style="opacity:1" fill="#012771" d="M 617.5,399.5 C 662.846,398.838 707.846,399.505 752.5,401.5C 707.402,400.838 662.402,400.172 617.5,399.5 Z"/></g>
<g><path style="opacity:1" fill="#8bb0fd" d="M 617.5,399.5 C 662.664,398.501 707.997,398.168 753.5,398.5C 753.737,399.791 753.404,400.791 752.5,401.5C 707.846,399.505 662.846,398.838 617.5,399.5 Z"/></g>
<g><path style="opacity:1" fill="#374972" d="M 759.5,394.5 C 710.167,394.5 660.833,394.5 611.5,394.5C 611.5,393.5 611.5,392.5 611.5,391.5C 660.833,391.5 710.167,391.5 759.5,391.5C 759.5,392.5 759.5,393.5 759.5,394.5 Z"/></g>
<g><path style="opacity:1" fill="#7b8ec0" d="M 714.5,451.5 C 717.079,451.083 719.246,451.75 721,453.5C 722.667,450.833 724.333,450.833 726,453.5C 727.418,451.637 729.251,451.137 731.5,452C 732.747,453.458 732.747,454.958 731.5,456.5C 724.571,458.133 717.905,457.467 711.5,454.5C 712.993,453.859 713.993,452.859 714.5,451.5 Z"/></g>
<g><path style="opacity:1" fill="#6b7aa5" d="M 710.5,461.5 C 713.245,461.945 715.745,462.945 718,464.5C 719.525,463.28 721.359,462.613 723.5,462.5C 729.285,461.837 730.951,464.171 728.5,469.5C 722.833,469.5 717.167,469.5 711.5,469.5C 711.5,468.5 711.5,467.5 711.5,466.5C 710.448,466.649 709.448,466.483 708.5,466C 710.037,464.89 710.703,463.39 710.5,461.5 Z"/></g>
<g><path style="opacity:1" fill="#333d67" d="M 596.5,475.5 C 642.167,475.5 687.833,475.5 733.5,475.5C 710.843,476.833 687.843,477.5 664.5,477.5C 641.5,477.167 618.5,476.833 595.5,476.5C 595.624,475.893 595.957,475.56 596.5,475.5 Z"/></g>
<g><path style="opacity:1" fill="#063692" d="M 497.5,475.5 C 500.748,475.664 503.748,476.664 506.5,478.5C 529.105,480.425 551.438,483.425 573.5,487.5C 574.918,489.308 576.918,489.975 579.5,489.5C 577.034,490.634 574.367,490.801 571.5,490C 549.657,485.582 527.657,482.248 505.5,480C 502.609,478.726 499.942,477.226 497.5,475.5 Z"/></g>
<g><path style="opacity:1" fill="#7596dc" d="M 738.5,479.5 C 738.5,480.5 738.5,481.5 738.5,482.5C 688.162,482.833 637.829,482.5 587.5,481.5C 587.624,480.893 587.957,480.56 588.5,480.5C 613.164,481.167 637.998,481.5 663,481.5C 688.381,481.491 713.548,480.824 738.5,479.5 Z"/></g>
<g><path style="opacity:1" fill="#385ea6" d="M 735.5,505.5 C 735.5,506.167 735.5,506.833 735.5,507.5C 705.167,507.5 674.833,507.5 644.5,507.5C 642.606,504.061 640.44,500.728 638,497.5C 636.549,495.536 634.716,494.203 632.5,493.5C 632.5,492.167 631.833,491.5 630.5,491.5C 627.572,490.18 624.239,489.514 620.5,489.5C 616.761,489.514 613.428,490.18 610.5,491.5C 606.351,490.92 602.684,491.586 599.5,493.5C 598.512,498.64 598.179,503.974 598.5,509.5C 597.833,509.5 597.167,509.5 596.5,509.5C 596.5,504.167 596.5,498.833 596.5,493.5C 590.873,491.796 585.207,490.462 579.5,489.5C 579.539,488.417 579.873,487.417 580.5,486.5C 633.5,485.167 686.5,485.167 739.5,486.5C 737.129,492.614 735.795,498.948 735.5,505.5 Z"/></g>
<g><path style="opacity:1" fill="#a35b2b" d="M 610.5,491.5 C 617.167,491.5 623.833,491.5 630.5,491.5C 631.833,491.5 632.5,492.167 632.5,493.5C 621.497,492.105 610.497,492.439 599.5,494.5C 599.5,494.167 599.5,493.833 599.5,493.5C 602.684,491.586 606.351,490.92 610.5,491.5 Z"/></g>
<g><path style="opacity:1" fill="#6c5254" d="M 630.5,491.5 C 623.833,491.5 617.167,491.5 610.5,491.5C 613.428,490.18 616.761,489.514 620.5,489.5C 624.239,489.514 627.572,490.18 630.5,491.5 Z"/></g>
<g><path style="opacity:1" fill="#fdb57c" d="M 632.5,493.5 C 634.716,494.203 636.549,495.536 638,497.5C 640.44,500.728 642.606,504.061 644.5,507.5C 644.5,508.167 644.5,508.833 644.5,509.5C 629.5,509.5 614.5,509.5 599.5,509.5C 599.5,504.5 599.5,499.5 599.5,494.5C 610.497,492.439 621.497,492.105 632.5,493.5 Z"/></g>
<g><path style="opacity:1" fill="#0d2a4f" d="M 823.5,313.5 C 823.833,354.505 823.5,395.505 822.5,436.5C 800.535,435.178 778.535,435.178 756.5,436.5C 750.942,461.507 745.276,486.507 739.5,511.5C 788.502,511.554 837.502,511.887 886.5,512.5C 886.5,454.833 886.5,397.167 886.5,339.5C 888.199,339.66 889.866,339.494 891.5,339C 891.167,338.667 890.833,338.333 890.5,338C 895.155,337.501 899.821,337.334 904.5,337.5C 904.242,332.593 904.909,328.593 906.5,325.5C 906.46,323.571 906.127,321.738 905.5,320C 906.448,319.517 907.448,319.351 908.5,319.5C 908.201,317.396 908.534,315.396 909.5,313.5C 910.107,313.624 910.44,313.957 910.5,314.5C 909.023,320.078 908.023,325.744 907.5,331.5C 906.006,338.103 905.339,344.936 905.5,352C 905.501,356.68 905.834,361.18 906.5,365.5C 908.592,384.034 914.426,401.368 924,417.5C 936.228,435.406 947.228,454.072 957,473.5C 965.665,501.218 963.831,528.218 951.5,554.5C 948.904,556.753 946.237,559.086 943.5,561.5C 939.733,560.926 936.733,562.093 934.5,565C 765.164,564.834 596.164,565.668 427.5,567.5C 426.5,567.833 425.833,568.5 425.5,569.5C 424.5,569.5 423.5,569.5 422.5,569.5C 424.747,547.553 426.413,525.553 427.5,503.5C 427.522,500.41 428.188,497.743 429.5,495.5C 430.058,496.79 431.058,497.623 432.5,498C 449.472,504.272 466.805,509.272 484.5,513C 523.674,513.551 562.674,513.051 601.5,511.5C 616.206,512.15 630.539,511.483 644.5,509.5C 675.185,510.159 705.518,509.492 735.5,507.5C 735.5,506.833 735.5,506.167 735.5,505.5C 745.112,466.904 754.778,428.237 764.5,389.5C 765.167,389.5 765.833,389.5 766.5,389.5C 766.611,390.117 766.944,390.617 767.5,391C 763.955,403.682 760.955,416.516 758.5,429.5C 757.549,430.919 757.216,432.585 757.5,434.5C 778.673,434.831 799.673,434.497 820.5,433.5C 820.5,391.833 820.5,350.167 820.5,308.5C 761.167,308.5 701.833,308.5 642.5,308.5C 642.5,334.833 642.5,361.167 642.5,387.5C 642.167,387.5 641.833,387.5 641.5,387.5C 640.202,373.987 639.535,360.32 639.5,346.5C 639.509,333.123 639.842,319.79 640.5,306.5C 701.496,305.5 762.496,305.167 823.5,305.5C 823.5,308.167 823.5,310.833 823.5,313.5 Z"/></g>
<g><path style="opacity:1" fill="#385574" d="M 644.5,507.5 C 674.833,507.5 705.167,507.5 735.5,507.5C 705.518,509.492 675.185,510.159 644.5,509.5C 644.5,508.833 644.5,508.167 644.5,507.5 Z"/></g>
<g><path style="opacity:1" fill="#325486" d="M 429.5,495.5 C 446.905,501.269 464.571,506.269 482.5,510.5C 520.535,512.009 558.535,511.676 596.5,509.5C 597.167,509.5 597.833,509.5 598.5,509.5C 598.821,511.048 599.821,511.715 601.5,511.5C 562.674,513.051 523.674,513.551 484.5,513C 466.805,509.272 449.472,504.272 432.5,498C 431.058,497.623 430.058,496.79 429.5,495.5 Z"/></g>
<g><path style="opacity:1" fill="#385ea7" d="M 884.5,482.5 C 884.5,491.5 884.5,500.5 884.5,509.5C 867.833,509.5 851.167,509.5 834.5,509.5C 834.5,500.5 834.5,491.5 834.5,482.5C 851.167,482.5 867.833,482.5 884.5,482.5 Z"/></g>
<g><path style="opacity:1" fill="#3c5e94" d="M 884.5,339.5 C 885.499,396.664 885.832,453.998 885.5,511.5C 868.134,512.152 851.134,511.486 834.5,509.5C 851.167,509.5 867.833,509.5 884.5,509.5C 884.5,500.5 884.5,491.5 884.5,482.5C 884.5,482.167 884.5,481.833 884.5,481.5C 884.5,457.5 884.5,433.5 884.5,409.5C 884.5,408.833 884.5,408.167 884.5,407.5C 884.5,395.833 884.5,384.167 884.5,372.5C 884.5,372.167 884.5,371.833 884.5,371.5C 884.5,360.833 884.5,350.167 884.5,339.5 Z"/></g>
<g><path style="opacity:1" fill="#385ea6" d="M 884.5,409.5 C 884.5,433.5 884.5,457.5 884.5,481.5C 867.833,481.5 851.167,481.5 834.5,481.5C 834.5,457.5 834.5,433.5 834.5,409.5C 851.167,409.5 867.833,409.5 884.5,409.5 Z"/></g>
<g><path style="opacity:1" fill="#5d789a" d="M 758.5,429.5 C 758.5,430.833 758.5,432.167 758.5,433.5C 779.167,433.5 799.833,433.5 820.5,433.5C 799.673,434.497 778.673,434.831 757.5,434.5C 757.216,432.585 757.549,430.919 758.5,429.5 Z"/></g>
<g><path style="opacity:1" fill="#60719e" d="M 862.5,411.5 C 866.682,411.32 870.682,411.987 874.5,413.5C 874.762,414.978 874.429,416.311 873.5,417.5C 872.167,416.167 870.833,414.833 869.5,413.5C 866.057,414.906 862.557,416.239 859,417.5C 857.699,416.902 856.865,415.902 856.5,414.5C 858.884,413.989 860.884,412.989 862.5,411.5 Z"/></g>
<g><path style="opacity:1" fill="#385ea7" d="M 884.5,372.5 C 884.5,384.167 884.5,395.833 884.5,407.5C 867.833,407.5 851.167,407.5 834.5,407.5C 834.5,395.833 834.5,384.167 834.5,372.5C 851.167,372.5 867.833,372.5 884.5,372.5 Z"/></g>
<g><path style="opacity:1" fill="#1a3f83" d="M 834.5,355.5 C 834.5,360.833 834.5,366.167 834.5,371.5C 851.167,371.5 867.833,371.5 884.5,371.5C 884.5,371.833 884.5,372.167 884.5,372.5C 867.833,372.5 851.167,372.5 834.5,372.5C 834.5,384.167 834.5,395.833 834.5,407.5C 851.167,407.5 867.833,407.5 884.5,407.5C 884.5,408.167 884.5,408.833 884.5,409.5C 867.833,409.5 851.167,409.5 834.5,409.5C 834.5,433.5 834.5,457.5 834.5,481.5C 851.167,481.5 867.833,481.5 884.5,481.5C 884.5,481.833 884.5,482.167 884.5,482.5C 867.833,482.5 851.167,482.5 834.5,482.5C 834.5,491.5 834.5,500.5 834.5,509.5C 833.167,458.167 833.167,406.833 834.5,355.5 Z"/></g>
<g><path style="opacity:1" fill="#395ea7" d="M 884.5,339.5 C 884.5,350.167 884.5,360.833 884.5,371.5C 867.833,371.5 851.167,371.5 834.5,371.5C 834.5,366.167 834.5,360.833 834.5,355.5C 834.5,350.167 834.5,344.833 834.5,339.5C 851.167,339.5 867.833,339.5 884.5,339.5 Z"/></g>
<g><path style="opacity:1" fill="#edcfdb" d="M 791.5,345.5 C 788.201,344.978 784.867,344.645 781.5,344.5C 775.45,343.68 770.617,345.68 767,350.5C 765.442,356.512 763.109,362.179 760,367.5C 754.388,369.721 749.555,373.054 745.5,377.5C 746.394,373.443 748.727,370.443 752.5,368.5C 753.689,367.571 755.022,367.238 756.5,367.5C 759.027,365.49 760.861,362.823 762,359.5C 765.625,344.263 775.125,338.596 790.5,342.5C 791.127,343.417 791.461,344.417 791.5,345.5 Z"/></g>
<g><path style="opacity:1" fill="#a1b5d2" d="M 599.5,493.5 C 599.5,493.833 599.5,494.167 599.5,494.5C 599.5,499.5 599.5,504.5 599.5,509.5C 614.5,509.5 629.5,509.5 644.5,509.5C 630.539,511.483 616.206,512.15 601.5,511.5C 599.821,511.715 598.821,511.048 598.5,509.5C 598.179,503.974 598.512,498.64 599.5,493.5 Z"/></g>
<g><path style="opacity:1" fill="#0c2b4f" d="M 188.5,567.5 C 167.831,567.667 147.164,567.5 126.5,567C 125.5,566.5 124.5,566 123.5,565.5C 119.419,560.564 115.086,555.898 110.5,551.5C 108.408,545.404 105.074,540.071 100.5,535.5C 99.5344,533.604 99.2011,531.604 99.5,529.5C 98.1667,529.5 96.8333,529.5 95.5,529.5C 91.4651,524.097 88.4651,518.097 86.5,511.5C 119.681,509.758 153.681,509.092 188.5,509.5C 188.5,528.833 188.5,548.167 188.5,567.5 Z"/></g>
<g><path style="opacity:1" fill="#6d7376" d="M 951.5,554.5 C 946.625,563.689 938.958,569.022 928.5,570.5C 929.59,569.143 930.924,568.143 932.5,567.5C 936.933,566.786 940.6,564.786 943.5,561.5C 946.237,559.086 948.904,556.753 951.5,554.5 Z"/></g>
<g><path style="opacity:1" fill="#112947" d="M 943.5,561.5 C 940.6,564.786 936.933,566.786 932.5,567.5C 764.167,567.5 595.833,567.5 427.5,567.5C 596.164,565.668 765.164,564.834 934.5,565C 936.733,562.093 939.733,560.926 943.5,561.5 Z"/></g>
<g><path style="opacity:1" fill="#325d94" d="M 116.5,336.5 C 116.833,336.5 117.167,336.5 117.5,336.5C 117.5,346.833 117.5,357.167 117.5,367.5C 117.5,368.167 117.5,368.833 117.5,369.5C 117.5,381.167 117.5,392.833 117.5,404.5C 117.5,405.167 117.5,405.833 117.5,406.5C 117.5,418.167 117.5,429.833 117.5,441.5C 117.5,442.167 117.5,442.833 117.5,443.5C 117.5,455.167 117.5,466.833 117.5,478.5C 117.5,478.833 117.5,479.167 117.5,479.5C 117.5,488.833 117.5,498.167 117.5,507.5C 134.5,507.5 151.5,507.5 168.5,507.5C 175.833,507.5 183.167,507.5 190.5,507.5C 191.497,527.326 191.83,547.326 191.5,567.5C 258.833,567.5 326.167,567.5 393.5,567.5C 393.5,527.167 393.5,486.833 393.5,446.5C 394.499,487.33 394.832,528.33 394.5,569.5C 326.5,569.5 258.5,569.5 190.5,569.5C 190.5,549.167 190.5,528.833 190.5,508.5C 165.833,508.5 141.167,508.5 116.5,508.5C 116.5,451.167 116.5,393.833 116.5,336.5 Z"/></g>
<g><path style="opacity:1" fill="#385ea7" d="M 117.5,479.5 C 134.5,479.5 151.5,479.5 168.5,479.5C 168.5,488.833 168.5,498.167 168.5,507.5C 151.5,507.5 134.5,507.5 117.5,507.5C 117.5,498.167 117.5,488.833 117.5,479.5 Z"/></g>
<g><path style="opacity:1" fill="#1e2d3e" d="M 427.5,567.5 C 595.833,567.5 764.167,567.5 932.5,567.5C 930.924,568.143 929.59,569.143 928.5,570.5C 927.833,570.5 927.167,570.5 926.5,570.5C 759.667,569.5 592.667,569.167 425.5,569.5C 425.833,568.5 426.5,567.833 427.5,567.5 Z"/></g>
<g><path style="opacity:1" fill="#1c2128" d="M 95.5,529.5 C 96.8333,529.5 98.1667,529.5 99.5,529.5C 99.2011,531.604 99.5344,533.604 100.5,535.5C 105.074,540.071 108.408,545.404 110.5,551.5C 115.086,555.898 119.419,560.564 123.5,565.5C 124.5,566 125.5,566.5 126.5,567C 147.164,567.5 167.831,567.667 188.5,567.5C 188.5,568.833 189.167,569.5 190.5,569.5C 258.5,569.5 326.5,569.5 394.5,569.5C 403.833,569.5 413.167,569.5 422.5,569.5C 423.5,569.5 424.5,569.5 425.5,569.5C 592.667,569.167 759.667,569.5 926.5,570.5C 661.166,570.667 395.833,570.5 130.5,570C 122.333,567.495 115.5,562.995 110,556.5C 104.633,547.764 99.7995,538.764 95.5,529.5 Z"/></g>
<g><path style="opacity:1" fill="#33b81c" d="M -0.5,619.5 C 331.5,619.5 663.5,619.5 995.5,619.5C 995.5,620.5 995.5,621.5 995.5,622.5C 663.5,622.5 331.5,622.5 -0.5,622.5C -0.5,621.5 -0.5,620.5 -0.5,619.5 Z"/></g>
</svg>
